# Blender 3.1.2
# www.blender.org
o Sedan_01_collider
v -0.309065 0.117324 0.996453
v -0.379423 0.117324 0.922834
v -0.309065 0.241538 0.996453
v -0.376789 0.241538 0.936139
v -0.379423 0.385095 0.941174
v -0.379423 0.448673 0.441649
v -0.264244 0.682480 0.293982
v -0.379423 0.117324 -0.885592
v -0.308726 0.117324 -0.967438
v -0.262593 0.685830 -0.493745
v -0.379423 0.448673 -0.656009
v -0.379423 0.448673 -0.897876
v -0.308726 0.424361 -0.968573
v 0.309063 0.117324 0.996452
v 0.379421 0.117324 0.922834
v 0.309063 0.241538 0.996452
v 0.376787 0.241538 0.936139
v 0.379421 0.385095 0.941174
v 0.264241 0.682480 0.293982
v 0.379421 0.448673 0.441649
v 0.379421 0.117324 -0.885592
v 0.308724 0.117324 -0.967438
v 0.262592 0.685829 -0.493746
v 0.379421 0.448672 -0.656010
v 0.379421 0.448672 -0.897876
v 0.308724 0.424361 -0.968573
vn -0.0000 -0.0351 0.9994
vn -0.7217 -0.0586 0.6897
vn -0.0000 -0.0000 1.0000
vn -0.0000 -1.0000 -0.0000
vn -1.0000 -0.0080 0.0020
vn 0.7217 -0.0586 0.6897
vn -0.0000 -0.0037 -1.0000
vn -0.0000 0.5340 0.8455
vn -0.0000 0.9920 0.1263
vn -0.7568 -0.0024 -0.6537
vn -0.0000 0.5647 -0.8253
vn -0.0000 0.9456 -0.3252
vn -0.0000 1.0000 -0.0000
vn -0.0000 1.0000 0.0043
vn 0.7568 -0.0024 -0.6537
vn 0.8971 0.4419 -0.0000
vn 1.0000 -0.0000 -0.0000
vn -0.8971 0.4419 -0.0000
vn -0.6651 -0.0000 0.7468
vn -1.0000 -0.0000 -0.0000
vn -0.9998 0.0212 -0.0000
vn -0.9998 -0.0183 -0.0023
vn 0.6651 -0.0000 0.7468
vn -0.7113 -0.0260 -0.7024
vn 0.7113 -0.0260 -0.7024
vn 0.8761 -0.0329 0.4811
s 0
f 4//1 18//1 5//1
f 1//2 4//2 2//2
f 14//3 3//3 1//3
f 2//4 9//4 21//4
f 8//5 4//5 6//5
f 17//6 14//6 15//6
f 22//7 13//7 26//7
f 19//8 6//8 20//8
f 5//9 20//9 6//9
f 8//10 13//10 9//10
f 11//11 23//11 24//11
f 13//12 25//12 26//12
f 17//13 3//13 16//13
f 19//14 10//14 7//14
f 26//15 21//15 22//15
f 11//13 25//13 12//13
f 20//16 23//16 19//16
f 24//17 18//17 15//17
f 10//18 6//18 7//18
f 4//1 17//1 18//1
f 1//19 3//19 4//19
f 14//3 16//3 3//3
f 21//4 15//4 14//4
f 14//4 1//4 2//4
f 2//4 8//4 9//4
f 9//4 22//4 21//4
f 21//4 14//4 2//4
f 11//20 12//20 8//20
f 8//21 2//21 4//21
f 4//22 5//22 6//22
f 6//20 11//20 8//20
f 17//23 16//23 14//23
f 22//7 9//7 13//7
f 19//8 7//8 6//8
f 5//9 18//9 20//9
f 8//24 12//24 13//24
f 11//11 10//11 23//11
f 13//12 12//12 25//12
f 17//13 4//13 3//13
f 19//14 23//14 10//14
f 26//25 25//25 21//25
f 11//13 24//13 25//13
f 20//16 24//16 23//16
f 15//17 21//17 25//17
f 24//17 20//17 18//17
f 15//17 25//17 24//17
f 18//26 17//26 15//26
f 10//18 11//18 6//18
