# Blender 3.1.2
# www.blender.org
o Minivan_collider
v 0.405629 0.603943 -0.874460
v 0.405629 0.520512 0.959319
v 0.405629 0.164400 0.981470
v -0.405629 0.163501 -0.875770
v -0.405629 0.603943 -0.874460
v -0.320173 0.925529 0.347025
v 0.405629 0.603943 0.607538
v 0.320173 0.925529 0.347025
v -0.320173 0.925529 -0.818675
v -0.405629 0.164400 0.981470
v -0.405629 0.603943 0.607538
v -0.405629 0.520512 0.959319
v 0.405629 0.163501 -0.875770
v 0.320173 0.925529 -0.818675
vn 1.0000 -0.0000 -0.0000
vn -0.0000 0.0030 -1.0000
vn -0.0000 0.6295 0.7770
vn 0.9665 0.2568 -0.0000
vn -0.0000 1.0000 -0.0000
vn -1.0000 -0.0000 -0.0000
vn -0.0000 0.0621 0.9981
vn -0.0000 0.9730 0.2308
vn -0.9665 0.2568 -0.0000
vn -0.0000 0.1709 -0.9853
s 1
f 1//1 2//1 3//1
f 1//2 4//2 5//2
f 6//3 7//3 8//3
f 1//4 8//4 7//4
f 8//5 9//5 6//5
f 10//6 11//6 5//6
f 2//7 10//7 3//7
f 2//8 11//8 12//8
f 6//9 5//9 11//9
f 9//10 1//10 5//10
f 3//1 13//1 1//1
f 1//1 7//1 2//1
f 1//2 13//2 4//2
f 6//3 11//3 7//3
f 1//4 14//4 8//4
f 8//5 14//5 9//5
f 5//6 4//6 10//6
f 10//6 12//6 11//6
f 2//7 12//7 10//7
f 2//8 7//8 11//8
f 6//9 9//9 5//9
f 9//10 14//10 1//10
