# Blender 3.1.2
# www.blender.org
mtllib Accelerator.mtl
o speed
v -0.096258 -0.073178 -0.274377
v -0.096258 0.607889 0.352264
v 0.088226 0.607889 0.352264
v 0.088226 -0.073178 -0.274377
v 0.088226 -0.054813 -0.100489
v 0.088226 -0.607928 -0.352244
v -0.096258 -0.607928 -0.352244
v -0.096258 -0.054813 -0.100489
v 0.088226 0.054774 0.100508
v -0.096258 0.054774 0.100508
v 0.088226 0.072833 0.274335
v -0.096258 0.072833 0.274335
v -0.155518 0.397114 0.217928
v -0.155518 0.011235 0.042210
v -0.155518 0.026396 0.173141
v -0.155518 -0.397216 -0.217898
v 0.153755 0.397114 0.217928
v 0.153755 0.011235 0.042210
v 0.153755 0.026396 0.173141
v 0.153755 -0.397216 -0.217898
v 0.153755 -0.026499 -0.173109
v 0.153755 -0.011327 -0.042178
v -0.155518 -0.026499 -0.173109
v -0.155518 -0.011327 -0.042178
vn -0.4161 -0.4075 -0.8129
vn -0.4781 0.7331 0.4837
vn 0.4717 0.7359 0.4856
vn 0.4034 -0.4100 -0.8181
vn 0.5227 -0.4945 -0.6944
vn 0.4719 -0.7358 -0.4858
vn -0.4782 -0.7329 -0.4839
vn -0.5598 -0.4802 -0.6753
vn 0.5221 0.4940 0.6953
vn -0.5591 0.4797 0.6762
vn 0.4033 0.4090 0.8186
vn -0.4160 0.4066 0.8134
vn -0.9760 0.1503 0.1578
vn -0.9934 0.0677 0.0924
vn -0.9214 0.2086 0.3278
vn -0.9760 -0.1502 -0.1577
vn 0.9716 0.1678 0.1667
vn 0.9924 0.0727 0.0993
vn 0.9093 0.2194 0.3535
vn 0.9717 -0.1677 -0.1666
vn 0.9095 -0.2190 -0.3534
vn 0.9924 -0.0726 -0.0992
vn -0.9215 -0.2082 -0.3277
vn -0.9934 -0.0676 -0.0923
vt 0.991728 0.358077
vt 0.991728 0.341708
vt 0.975359 0.358077
vt 0.975359 0.341708
vt 0.991728 0.358077
vt 0.991728 0.341708
vt 0.975359 0.358077
vt 0.975359 0.341708
vt 0.991728 0.341708
vt 0.991728 0.358077
vt 0.975359 0.358077
vt 0.975359 0.358077
vt 0.975359 0.341708
vt 0.991728 0.358077
vt 0.991728 0.358077
vt 0.975359 0.341708
vt 0.975359 0.358077
vt 0.975359 0.341708
vt 0.991728 0.341708
vt 0.991728 0.358077
vt 0.975359 0.341708
vt 0.991728 0.341708
vt 0.991728 0.358077
vt 0.991728 0.358077
vt 0.975359 0.358077
vt 0.975359 0.341708
vt 0.991728 0.341708
vt 0.975359 0.341708
vt 0.991728 0.341708
vt 0.975359 0.358077
vt 0.975359 0.358077
vt 0.991728 0.358077
vt 0.975359 0.341708
vt 0.991728 0.341708
vt 0.991728 0.358077
vt 0.975359 0.358077
vt 0.975359 0.341708
vt 0.991728 0.358077
vt 0.975359 0.341708
vt 0.975359 0.358077
vt 0.991728 0.341708
vt 0.975359 0.358077
vt 0.991728 0.341708
vt 0.991728 0.358077
vt 0.975359 0.341708
vt 0.975359 0.358077
vt 0.991728 0.341708
vt 0.991728 0.358077
vt 0.991728 0.341708
vt 0.991728 0.341708
vt 0.991728 0.358077
vt 0.975359 0.341708
vt 0.991728 0.358077
vt 0.975359 0.358077
vt 0.991728 0.341708
vt 0.991728 0.341708
vt 0.991728 0.358077
vt 0.991728 0.358077
vt 0.975359 0.341708
vt 0.991728 0.341708
vt 0.975359 0.358077
vt 0.975359 0.341708
vt 0.975359 0.358077
vt 0.975359 0.358077
vt 0.975359 0.341708
s 1
usemtl Default_OBJ
f 1/1/1 2/3/2 3/8/3 4/9/4
f 5/14/5 6/17/6 7/18/7 8/22/8
f 9/24/9 3/7/3 2/4/2 10/29/10
f 6/15/6 11/31/11 12/33/12 7/19/7
f 4/10/4 5/12/5 8/21/8 1/2/1
f 11/32/11 9/25/9 10/28/10 12/34/12
f 2/5/2 13/36/13 14/39/14 10/29/10
f 12/35/12 15/42/15 16/45/16 7/19/7
f 17/48/17 3/7/3 9/26/9 18/50/18
f 19/53/19 11/31/11 6/16/6 20/56/20
f 21/58/21 4/11/4 3/8/3 17/49/17
f 20/57/20 6/17/6 5/13/5 22/60/22
f 1/1/1 23/63/23 13/37/13 2/6/2
f 7/20/7 16/46/16 24/65/24 8/22/8
f 11/32/11 19/54/19 18/52/18 9/27/9
f 12/35/12 10/30/10 14/39/14 15/43/15
f 5/14/5 4/11/4 21/59/21 22/60/22
f 8/23/8 24/64/24 23/62/23 1/2/1
f 15/44/15 14/40/14 24/65/24 16/47/16
f 13/38/13 23/63/23 24/65/24 14/41/14
f 18/51/18 22/61/22 21/59/21 17/49/17
f 20/57/20 22/61/22 18/52/18 19/55/19
