# Blender 3.1.2
# www.blender.org
mtllib lamp.mtl
o Cube
v 0.050330 2.056935 0.219760
v 0.330285 2.056935 0.060354
v 0.330285 2.056935 0.162028
v 0.330285 2.056935 0.050917
v 0.046976 1.921718 0.158673
v 0.046743 1.921718 0.047330
v 0.269962 1.921718 0.159437
v 0.268965 1.921718 0.047330
v 0.157854 1.921718 0.158441
v 0.157854 1.921718 0.047330
v 0.047788 1.921718 -0.000000
v 0.270010 1.921718 -0.000000
v 0.158899 1.921718 -0.000000
v 0.170879 2.056935 0.219760
v 0.059768 2.056935 0.219760
v 0.046743 1.921718 0.063941
v 0.268965 1.921718 0.063941
v 0.157854 1.921718 0.063941
v 0.161441 2.056935 0.219760
v 0.272553 2.056935 0.219760
v 0.050330 1.932762 0.219760
v 0.046976 1.921718 0.174820
v 0.272553 1.932762 0.219760
v 0.269962 1.921718 0.174056
v 0.161441 1.932762 0.219760
v 0.157854 1.921718 0.175053
v 0.000000 1.921718 0.048374
v 0.000000 1.921718 0.159486
v 0.000000 1.921718 0.062897
v 0.000000 1.921718 0.174008
v 0.063355 1.921718 0.047330
v 0.063122 1.921718 0.158673
v 0.062310 1.921718 -0.000000
v 0.063355 1.921718 0.063941
v 0.063122 1.921718 0.174820
v 0.059768 1.932762 0.219760
v 0.174466 1.921718 0.047330
v 0.174466 1.921718 0.158441
v 0.173421 1.921718 -0.000000
v 0.174466 1.921718 0.063941
v 0.174466 1.921718 0.175053
v 0.170879 1.932762 0.219760
v 0.281990 2.056935 0.219760
v 0.330285 2.056935 0.171465
v 0.330285 1.932762 0.050917
v 0.285577 1.921718 0.047330
v 0.330285 1.932762 0.162028
v 0.284581 1.921718 0.159437
v 0.284532 1.921718 -0.000000
v 0.330285 1.932762 0.060354
v 0.285577 1.921718 0.063941
v 0.330285 1.932762 0.171465
v 0.284581 1.921718 0.174056
v 0.281990 1.932762 0.219760
v -0.050330 2.056935 0.219760
v -0.330285 2.056935 0.060354
v -0.330285 2.056935 0.162028
v -0.330285 2.056935 0.050917
v -0.046976 1.921718 0.158673
v -0.046743 1.921718 0.047330
v -0.269962 1.921718 0.159437
v -0.268965 1.921718 0.047330
v -0.157854 1.921718 0.158441
v -0.157854 1.921718 0.047330
v -0.047788 1.921718 -0.000000
v -0.270010 1.921718 -0.000000
v -0.158899 1.921718 -0.000000
v -0.170879 2.056935 0.219760
v -0.059768 2.056935 0.219760
v -0.046743 1.921718 0.063941
v -0.268965 1.921718 0.063941
v -0.157854 1.921718 0.063941
v -0.161441 2.056935 0.219760
v -0.272553 2.056935 0.219760
v -0.050330 1.932762 0.219760
v -0.046976 1.921718 0.174820
v -0.272553 1.932762 0.219760
v -0.269962 1.921718 0.174056
v -0.161441 1.932762 0.219760
v -0.157854 1.921718 0.175053
v -0.063355 1.921718 0.047330
v -0.063122 1.921718 0.158673
v -0.062310 1.921718 -0.000000
v -0.063355 1.921718 0.063941
v -0.063122 1.921718 0.174820
v -0.059768 1.932762 0.219760
v -0.174466 1.921718 0.047330
v -0.174466 1.921718 0.158441
v -0.173421 1.921718 -0.000000
v -0.174466 1.921718 0.063941
v -0.174466 1.921718 0.175053
v -0.170879 1.932762 0.219760
v -0.281990 2.056935 0.219760
v -0.330285 2.056935 0.171465
v -0.330285 1.932762 0.050917
v -0.285577 1.921718 0.047330
v -0.330285 1.932762 0.162028
v -0.284581 1.921718 0.159437
v -0.284532 1.921718 -0.000000
v -0.330285 1.932762 0.060354
v -0.285577 1.921718 0.063941
v -0.330285 1.932762 0.171465
v -0.284581 1.921718 0.174056
v -0.281990 1.932762 0.219760
v 0.050330 2.056935 -0.219760
v 0.330285 2.056935 -0.060354
v 0.330285 2.056935 -0.162028
v 0.330285 2.056935 -0.050917
v 0.046976 1.921718 -0.158673
v 0.046743 1.921718 -0.047330
v 0.269962 1.921718 -0.159437
v 0.268965 1.921718 -0.047330
v 0.157854 1.921718 -0.158441
v 0.157854 1.921718 -0.047330
v 0.170879 2.056935 -0.219760
v 0.059768 2.056935 -0.219760
v 0.046743 1.921718 -0.063941
v 0.268965 1.921718 -0.063941
v 0.157854 1.921718 -0.063941
v 0.161441 2.056935 -0.219760
v 0.272553 2.056935 -0.219760
v 0.050330 1.932762 -0.219760
v 0.046976 1.921718 -0.174820
v 0.272553 1.932762 -0.219760
v 0.269962 1.921718 -0.174056
v 0.161441 1.932762 -0.219760
v 0.157854 1.921718 -0.175053
v 0.000000 1.921718 -0.048374
v 0.000000 1.921718 -0.159486
v 0.000000 1.921718 -0.062897
v 0.000000 1.921718 -0.174008
v 0.063355 1.921718 -0.047330
v 0.063122 1.921718 -0.158673
v 0.063355 1.921718 -0.063941
v 0.063122 1.921718 -0.174820
v 0.059768 1.932762 -0.219760
v 0.174466 1.921718 -0.047330
v 0.174466 1.921718 -0.158441
v 0.174466 1.921718 -0.063941
v 0.174466 1.921718 -0.175053
v 0.170879 1.932762 -0.219760
v 0.281990 2.056935 -0.219760
v 0.330285 2.056935 -0.171465
v 0.330285 1.932762 -0.050917
v 0.285577 1.921718 -0.047330
v 0.330285 1.932762 -0.162028
v 0.284581 1.921718 -0.159437
v 0.330285 1.932762 -0.060354
v 0.285577 1.921718 -0.063941
v 0.330285 1.932762 -0.171465
v 0.284581 1.921718 -0.174056
v 0.281990 1.932762 -0.219760
v -0.050330 2.056935 -0.219760
v -0.330285 2.056935 -0.060354
v -0.330285 2.056935 -0.162028
v -0.330285 2.056935 -0.050917
v -0.046976 1.921718 -0.158673
v -0.046743 1.921718 -0.047330
v -0.269962 1.921718 -0.159437
v -0.268965 1.921718 -0.047330
v -0.157854 1.921718 -0.158441
v -0.157854 1.921718 -0.047330
v -0.170879 2.056935 -0.219760
v -0.059768 2.056935 -0.219760
v -0.046743 1.921718 -0.063941
v -0.268965 1.921718 -0.063941
v -0.157854 1.921718 -0.063941
v -0.161441 2.056935 -0.219760
v -0.272553 2.056935 -0.219760
v -0.050330 1.932762 -0.219760
v -0.046976 1.921718 -0.174820
v -0.272553 1.932762 -0.219760
v -0.269962 1.921718 -0.174056
v -0.161441 1.932762 -0.219760
v -0.157854 1.921718 -0.175053
v -0.063355 1.921718 -0.047330
v -0.063122 1.921718 -0.158673
v -0.063355 1.921718 -0.063941
v -0.063122 1.921718 -0.174820
v -0.059768 1.932762 -0.219760
v -0.174466 1.921718 -0.047330
v -0.174466 1.921718 -0.158441
v -0.174466 1.921718 -0.063941
v -0.174466 1.921718 -0.175053
v -0.170879 1.932762 -0.219760
v -0.281990 2.056935 -0.219760
v -0.330285 2.056935 -0.171465
v -0.330285 1.932762 -0.050917
v -0.285577 1.921718 -0.047330
v -0.330285 1.932762 -0.162028
v -0.284581 1.921718 -0.159437
v -0.330285 1.932762 -0.060354
v -0.285577 1.921718 -0.063941
v -0.330285 1.932762 -0.171465
v -0.284581 1.921718 -0.174056
v -0.281990 1.932762 -0.219760
vn 0.7773 -0.6291 -0.0000
vn 1.0000 -0.0000 -0.0000
vn -0.0000 -1.0000 -0.0000
vn 0.0781 -0.9969 -0.0000
vn 0.0767 -0.9971 -0.0000
vn 0.0779 -0.9970 -0.0000
vn -0.0000 -0.6313 0.7755
vn -0.0000 -0.0000 1.0000
vn -0.0000 -0.9970 0.0778
vn -0.0000 -0.9970 0.0779
vn -0.0000 -0.9971 0.0767
vn -0.0000 -0.6291 0.7773
vn 0.0783 -0.9938 0.0783
vn -0.0000 -0.6308 0.7760
vn -0.0000 -0.9970 0.0775
vn 0.7755 -0.6313 -0.0000
vn -1.0000 -0.0000 -0.0000
vn -0.7773 -0.6291 -0.0000
vn -0.0781 -0.9969 -0.0000
vn -0.0767 -0.9971 -0.0000
vn -0.0779 -0.9970 -0.0000
vn -0.0783 -0.9938 0.0783
vn -0.7755 -0.6313 -0.0000
vn -0.0000 -0.0000 -1.0000
vn -0.0000 -0.6313 -0.7755
vn -0.0000 -0.9970 -0.0778
vn -0.0000 -0.9970 -0.0779
vn -0.0000 -0.9971 -0.0767
vn 0.0783 -0.9938 -0.0783
vn -0.0000 -0.6291 -0.7773
vn -0.0000 -0.9970 -0.0775
vn -0.0000 -0.6308 -0.7760
vn -0.0783 -0.9938 -0.0783
vt 0.615741 0.833333
vt 0.578704 0.759259
vt 0.597222 0.759259
vt 0.569444 0.759259
vt 0.597222 0.833333
vt 0.569444 0.833333
vt 0.597222 0.777778
vt 0.569444 0.777778
vt 0.597222 0.805556
vt 0.569444 0.805556
vt 0.560185 0.833333
vt 0.560185 0.777778
vt 0.560185 0.805555
vt 0.615741 0.796296
vt 0.615741 0.824074
vt 0.578704 0.833333
vt 0.578704 0.777778
vt 0.578704 0.805555
vt 0.615741 0.805556
vt 0.615741 0.777778
vt 0.615741 0.833333
vt 0.606481 0.833333
vt 0.615741 0.777778
vt 0.606481 0.777778
vt 0.615741 0.805556
vt 0.606481 0.805556
vt 0.569444 0.842593
vt 0.597222 0.842593
vt 0.578704 0.842593
vt 0.606481 0.842593
vt 0.569444 0.824074
vt 0.597222 0.824074
vt 0.560185 0.824074
vt 0.578704 0.824074
vt 0.606481 0.824074
vt 0.615741 0.824074
vt 0.569444 0.796296
vt 0.597222 0.796296
vt 0.560185 0.796296
vt 0.578704 0.796296
vt 0.606481 0.796296
vt 0.615741 0.796296
vt 0.615741 0.768519
vt 0.606481 0.759259
vt 0.569444 0.759259
vt 0.569444 0.768518
vt 0.597222 0.759259
vt 0.597222 0.768518
vt 0.560185 0.768519
vt 0.578704 0.759259
vt 0.578704 0.768518
vt 0.606481 0.759259
vt 0.606481 0.768518
vt 0.615741 0.768519
vt 0.615741 0.833333
vt 0.578704 0.759259
vt 0.597222 0.759259
vt 0.569444 0.759259
vt 0.597222 0.833333
vt 0.569444 0.833333
vt 0.597222 0.777778
vt 0.569444 0.777778
vt 0.597222 0.805556
vt 0.569444 0.805556
vt 0.560185 0.833333
vt 0.560185 0.777778
vt 0.560185 0.805555
vt 0.615741 0.796296
vt 0.615741 0.824074
vt 0.578704 0.833333
vt 0.578704 0.777778
vt 0.578704 0.805555
vt 0.615741 0.805556
vt 0.615741 0.777778
vt 0.615741 0.833333
vt 0.606481 0.833333
vt 0.615741 0.777778
vt 0.606481 0.777778
vt 0.615741 0.805556
vt 0.606481 0.805556
vt 0.569444 0.824074
vt 0.597222 0.824074
vt 0.560185 0.824074
vt 0.578704 0.824074
vt 0.606481 0.824074
vt 0.615741 0.824074
vt 0.569444 0.796296
vt 0.597222 0.796296
vt 0.560185 0.796296
vt 0.578704 0.796296
vt 0.606481 0.796296
vt 0.615741 0.796296
vt 0.615741 0.768519
vt 0.606481 0.759259
vt 0.569444 0.759259
vt 0.569444 0.768518
vt 0.597222 0.759259
vt 0.597222 0.768518
vt 0.560185 0.768519
vt 0.578704 0.759259
vt 0.578704 0.768518
vt 0.606481 0.759259
vt 0.606481 0.768518
vt 0.615741 0.768519
vt 0.615741 0.833333
vt 0.578704 0.759259
vt 0.597222 0.759259
vt 0.569444 0.759259
vt 0.597222 0.833333
vt 0.569444 0.833333
vt 0.597222 0.777778
vt 0.569444 0.777778
vt 0.597222 0.805556
vt 0.569444 0.805556
vt 0.615741 0.796296
vt 0.615741 0.824074
vt 0.578704 0.833333
vt 0.578704 0.777778
vt 0.578704 0.805555
vt 0.615741 0.805556
vt 0.615741 0.777778
vt 0.615741 0.833333
vt 0.606481 0.833333
vt 0.615741 0.777778
vt 0.606481 0.777778
vt 0.615741 0.805556
vt 0.606481 0.805556
vt 0.569444 0.842593
vt 0.597222 0.842593
vt 0.578704 0.842593
vt 0.606481 0.842593
vt 0.569444 0.824074
vt 0.597222 0.824074
vt 0.578704 0.824074
vt 0.606481 0.824074
vt 0.615741 0.824074
vt 0.569444 0.796296
vt 0.597222 0.796296
vt 0.578704 0.796296
vt 0.606481 0.796296
vt 0.615741 0.796296
vt 0.615741 0.768519
vt 0.606481 0.759259
vt 0.569444 0.759259
vt 0.569444 0.768518
vt 0.597222 0.759259
vt 0.597222 0.768518
vt 0.578704 0.759259
vt 0.578704 0.768518
vt 0.606481 0.759259
vt 0.606481 0.768518
vt 0.615741 0.768519
vt 0.615741 0.833333
vt 0.578704 0.759259
vt 0.597222 0.759259
vt 0.569444 0.759259
vt 0.597222 0.833333
vt 0.569444 0.833333
vt 0.597222 0.777778
vt 0.569444 0.777778
vt 0.597222 0.805556
vt 0.569444 0.805556
vt 0.615741 0.796296
vt 0.615741 0.824074
vt 0.578704 0.833333
vt 0.578704 0.777778
vt 0.578704 0.805555
vt 0.615741 0.805556
vt 0.615741 0.777778
vt 0.615741 0.833333
vt 0.606481 0.833333
vt 0.615741 0.777778
vt 0.606481 0.777778
vt 0.615741 0.805556
vt 0.606481 0.805556
vt 0.569444 0.824074
vt 0.597222 0.824074
vt 0.578704 0.824074
vt 0.606481 0.824074
vt 0.615741 0.824074
vt 0.569444 0.796296
vt 0.597222 0.796296
vt 0.578704 0.796296
vt 0.606481 0.796296
vt 0.615741 0.796296
vt 0.615741 0.768519
vt 0.606481 0.759259
vt 0.569444 0.759259
vt 0.569444 0.768518
vt 0.597222 0.759259
vt 0.597222 0.768518
vt 0.578704 0.759259
vt 0.578704 0.768518
vt 0.606481 0.759259
vt 0.606481 0.768518
vt 0.615741 0.768519
s 1
usemtl 
f 47/47/1 44/44/2 52/52/1
f 37/37/3 13/13/3 39/39/3
f 46/46/4 12/12/3 49/49/3
f 38/38/3 18/18/3 40/40/3
f 31/31/3 11/11/3 33/33/3
f 48/48/5 17/17/3 51/51/6
f 42/42/7 19/19/8 25/25/7
f 34/34/3 6/6/3 31/31/3
f 46/46/4 17/17/3 8/8/3
f 37/37/3 18/18/3 10/10/3
f 38/38/3 26/26/9 9/9/3
f 42/42/7 26/26/9 41/41/10
f 48/48/5 24/24/11 7/7/3
f 54/54/12 24/24/11 53/53/13
f 32/32/3 22/22/10 5/5/3
f 36/36/14 22/22/10 35/35/15
f 36/36/14 1/1/8 21/21/14
f 22/22/10 28/28/3 5/5/3
f 16/16/3 27/27/3 6/6/3
f 34/34/3 10/10/3 18/18/3
f 40/40/3 8/8/3 17/17/3
f 32/32/3 16/16/3 34/34/3
f 41/41/10 7/7/3 24/24/11
f 54/54/12 20/20/8 23/23/12
f 47/47/1 53/53/13 48/48/5
f 45/45/16 2/2/2 50/50/16
f 50/50/16 46/46/4 45/45/16
f 35/35/15 9/9/3 26/26/9
f 94/94/17 97/97/18 102/102/18
f 67/67/3 87/87/3 89/89/3
f 66/66/3 96/96/19 99/99/3
f 72/72/3 88/88/3 90/90/3
f 65/65/3 81/81/3 83/83/3
f 71/71/3 98/98/20 101/101/21
f 73/73/8 92/92/7 79/79/7
f 60/60/3 84/84/3 81/81/3
f 96/96/19 71/71/3 101/101/21
f 87/87/3 72/72/3 90/90/3
f 88/88/3 80/80/9 91/91/10
f 80/80/9 92/92/7 91/91/10
f 98/98/20 78/78/11 103/103/22
f 78/78/11 104/104/12 103/103/22
f 82/82/3 76/76/10 85/85/15
f 76/76/10 86/86/14 85/85/15
f 55/55/8 86/86/14 75/75/14
f 28/28/3 76/76/10 59/59/3
f 27/27/3 70/70/3 60/60/3
f 64/64/3 84/84/3 72/72/3
f 62/62/3 90/90/3 71/71/3
f 70/70/3 82/82/3 84/84/3
f 61/61/3 91/91/10 78/78/11
f 74/74/8 104/104/12 77/77/12
f 97/97/18 103/103/22 102/102/18
f 56/56/17 95/95/23 100/100/23
f 96/96/19 100/100/23 95/95/23
f 80/80/9 82/82/3 85/85/15
f 143/143/2 146/146/1 150/150/1
f 13/13/3 137/137/3 39/39/3
f 12/12/3 145/145/4 49/49/3
f 119/119/3 138/138/3 139/139/3
f 11/11/3 132/132/3 33/33/3
f 118/118/3 147/147/5 149/149/6
f 120/120/24 141/141/25 126/126/25
f 110/110/3 134/134/3 132/132/3
f 145/145/4 118/118/3 149/149/6
f 137/137/3 119/119/3 139/139/3
f 138/138/3 127/127/26 140/140/27
f 127/127/26 141/141/25 140/140/27
f 147/147/5 125/125/28 151/151/29
f 125/125/28 152/152/30 151/151/29
f 133/133/3 123/123/27 135/135/31
f 123/123/27 136/136/32 135/135/31
f 105/105/24 136/136/32 122/122/32
f 129/129/3 123/123/27 109/109/3
f 128/128/3 117/117/3 110/110/3
f 114/114/3 134/134/3 119/119/3
f 112/112/3 139/139/3 118/118/3
f 117/117/3 133/133/3 134/134/3
f 111/111/3 140/140/27 125/125/28
f 121/121/24 152/152/30 124/124/30
f 146/146/1 151/151/29 150/150/1
f 106/106/2 144/144/16 148/148/16
f 145/145/4 148/148/16 144/144/16
f 127/127/26 133/133/3 135/135/31
f 190/190/18 187/187/17 194/194/18
f 181/181/3 67/67/3 89/89/3
f 189/189/19 66/66/3 99/99/3
f 182/182/3 167/167/3 183/183/3
f 176/176/3 65/65/3 83/83/3
f 191/191/20 166/166/3 193/193/21
f 185/185/25 168/168/24 174/174/25
f 178/178/3 158/158/3 176/176/3
f 189/189/19 166/166/3 160/160/3
f 181/181/3 167/167/3 162/162/3
f 182/182/3 175/175/26 161/161/3
f 185/185/25 175/175/26 184/184/27
f 191/191/20 173/173/28 159/159/3
f 196/196/30 173/173/28 195/195/33
f 177/177/3 171/171/27 157/157/3
f 180/180/32 171/171/27 179/179/31
f 180/180/32 153/153/24 170/170/32
f 171/171/27 129/129/3 157/157/3
f 165/165/3 128/128/3 158/158/3
f 178/178/3 162/162/3 167/167/3
f 183/183/3 160/160/3 166/166/3
f 177/177/3 165/165/3 178/178/3
f 184/184/27 159/159/3 173/173/28
f 196/196/30 169/169/24 172/172/30
f 190/190/18 195/195/33 191/191/20
f 188/188/23 154/154/17 192/192/23
f 192/192/23 189/189/19 188/188/23
f 179/179/31 161/161/3 175/175/26
f 47/47/1 3/3/2 44/44/2
f 37/37/3 10/10/3 13/13/3
f 46/46/4 8/8/3 12/12/3
f 38/38/3 9/9/3 18/18/3
f 31/31/3 6/6/3 11/11/3
f 48/48/5 7/7/3 17/17/3
f 42/42/7 14/14/8 19/19/8
f 34/34/3 16/16/3 6/6/3
f 46/46/4 51/51/6 17/17/3
f 37/37/3 40/40/3 18/18/3
f 38/38/3 41/41/10 26/26/9
f 42/42/7 25/25/7 26/26/9
f 48/48/5 53/53/13 24/24/11
f 54/54/12 23/23/12 24/24/11
f 32/32/3 35/35/15 22/22/10
f 36/36/14 21/21/14 22/22/10
f 36/36/14 15/15/8 1/1/8
f 22/22/10 30/30/3 28/28/3
f 16/16/3 29/29/3 27/27/3
f 34/34/3 31/31/3 10/10/3
f 40/40/3 37/37/3 8/8/3
f 32/32/3 5/5/3 16/16/3
f 41/41/10 38/38/3 7/7/3
f 54/54/12 43/43/8 20/20/8
f 47/47/1 52/52/1 53/53/13
f 45/45/16 4/4/2 2/2/2
f 50/50/16 51/51/6 46/46/4
f 35/35/15 32/32/3 9/9/3
f 94/94/17 57/57/17 97/97/18
f 67/67/3 64/64/3 87/87/3
f 66/66/3 62/62/3 96/96/19
f 72/72/3 63/63/3 88/88/3
f 65/65/3 60/60/3 81/81/3
f 71/71/3 61/61/3 98/98/20
f 73/73/8 68/68/8 92/92/7
f 60/60/3 70/70/3 84/84/3
f 96/96/19 62/62/3 71/71/3
f 87/87/3 64/64/3 72/72/3
f 88/88/3 63/63/3 80/80/9
f 80/80/9 79/79/7 92/92/7
f 98/98/20 61/61/3 78/78/11
f 78/78/11 77/77/12 104/104/12
f 82/82/3 59/59/3 76/76/10
f 76/76/10 75/75/14 86/86/14
f 55/55/8 69/69/8 86/86/14
f 28/28/3 30/30/3 76/76/10
f 27/27/3 29/29/3 70/70/3
f 64/64/3 81/81/3 84/84/3
f 62/62/3 87/87/3 90/90/3
f 70/70/3 59/59/3 82/82/3
f 61/61/3 88/88/3 91/91/10
f 74/74/8 93/93/8 104/104/12
f 97/97/18 98/98/20 103/103/22
f 56/56/17 58/58/17 95/95/23
f 96/96/19 101/101/21 100/100/23
f 80/80/9 63/63/3 82/82/3
f 143/143/2 107/107/2 146/146/1
f 13/13/3 114/114/3 137/137/3
f 12/12/3 112/112/3 145/145/4
f 119/119/3 113/113/3 138/138/3
f 11/11/3 110/110/3 132/132/3
f 118/118/3 111/111/3 147/147/5
f 120/120/24 115/115/24 141/141/25
f 110/110/3 117/117/3 134/134/3
f 145/145/4 112/112/3 118/118/3
f 137/137/3 114/114/3 119/119/3
f 138/138/3 113/113/3 127/127/26
f 127/127/26 126/126/25 141/141/25
f 147/147/5 111/111/3 125/125/28
f 125/125/28 124/124/30 152/152/30
f 133/133/3 109/109/3 123/123/27
f 123/123/27 122/122/32 136/136/32
f 105/105/24 116/116/24 136/136/32
f 129/129/3 131/131/3 123/123/27
f 128/128/3 130/130/3 117/117/3
f 114/114/3 132/132/3 134/134/3
f 112/112/3 137/137/3 139/139/3
f 117/117/3 109/109/3 133/133/3
f 111/111/3 138/138/3 140/140/27
f 121/121/24 142/142/24 152/152/30
f 146/146/1 147/147/5 151/151/29
f 106/106/2 108/108/2 144/144/16
f 145/145/4 149/149/6 148/148/16
f 127/127/26 113/113/3 133/133/3
f 190/190/18 155/155/17 187/187/17
f 181/181/3 162/162/3 67/67/3
f 189/189/19 160/160/3 66/66/3
f 182/182/3 161/161/3 167/167/3
f 176/176/3 158/158/3 65/65/3
f 191/191/20 159/159/3 166/166/3
f 185/185/25 163/163/24 168/168/24
f 178/178/3 165/165/3 158/158/3
f 189/189/19 193/193/21 166/166/3
f 181/181/3 183/183/3 167/167/3
f 182/182/3 184/184/27 175/175/26
f 185/185/25 174/174/25 175/175/26
f 191/191/20 195/195/33 173/173/28
f 196/196/30 172/172/30 173/173/28
f 177/177/3 179/179/31 171/171/27
f 180/180/32 170/170/32 171/171/27
f 180/180/32 164/164/24 153/153/24
f 171/171/27 131/131/3 129/129/3
f 165/165/3 130/130/3 128/128/3
f 178/178/3 176/176/3 162/162/3
f 183/183/3 181/181/3 160/160/3
f 177/177/3 157/157/3 165/165/3
f 184/184/27 182/182/3 159/159/3
f 196/196/30 186/186/24 169/169/24
f 190/190/18 194/194/18 195/195/33
f 188/188/23 156/156/17 154/154/17
f 192/192/23 193/193/21 189/189/19
f 179/179/31 177/177/3 161/161/3
