# Blender 3.1.2
# www.blender.org
mtllib pipe.mtl
o Cylinder.001
v -1.738864 0.517350 -1.060000
v -1.668153 0.488061 -1.060000
v -1.638864 0.417350 -1.060000
v -1.668153 0.346639 -1.060000
v -1.738864 0.317350 -1.060000
v -1.809574 0.346639 -1.060000
v -1.838864 0.417350 -1.060000
v -1.809574 0.488061 -1.060000
v -1.738864 0.517350 -2.960000
v -1.668153 0.488061 -2.960000
v -1.638864 0.417350 -2.960000
v -1.668153 0.346639 -2.960000
v -1.738864 0.317350 -2.960000
v -1.809574 0.346639 -2.960000
v -1.838864 0.417350 -2.960000
v -1.809574 0.488061 -2.960000
v -1.738864 0.517350 -0.980000
v -1.668153 0.488061 -0.980000
v -1.638864 0.417350 -0.980000
v -1.668153 0.346639 -0.980000
v -1.738864 0.317350 -0.980000
v -1.809574 0.346639 -0.980000
v -1.838864 0.417350 -0.980000
v -1.809574 0.488061 -0.980000
v -1.816646 0.495132 -1.055117
v -1.816646 0.495132 -0.984882
v -1.738864 0.527350 -0.984882
v -1.738864 0.527350 -1.055117
v -1.848864 0.417350 -1.055117
v -1.848864 0.417350 -0.984882
v -1.816646 0.339568 -1.055117
v -1.816646 0.339568 -0.984882
v -1.661082 0.495132 -0.984882
v -1.661082 0.495132 -1.055117
v -1.738864 0.307350 -1.055117
v -1.738864 0.307350 -0.984882
v -1.661082 0.339568 -1.055117
v -1.661082 0.339568 -0.984882
v -1.628864 0.417350 -1.055117
v -1.628864 0.417350 -0.984882
v -2.016646 0.495132 -1.055117
v -2.016646 0.495132 -0.984882
v -2.048864 0.417350 -1.055117
v -2.048864 0.417350 -0.984882
v 1.738864 0.517350 -1.060000
v 1.668153 0.488061 -1.060000
v 1.638864 0.417350 -1.060000
v 1.668153 0.346639 -1.060000
v 1.738864 0.317350 -1.060000
v 1.809574 0.346639 -1.060000
v 1.838864 0.417350 -1.060000
v 1.809574 0.488061 -1.060000
v 1.738864 0.517350 -2.960000
v 1.668153 0.488061 -2.960000
v 1.638864 0.417350 -2.960000
v 1.668153 0.346639 -2.960000
v 1.738864 0.317350 -2.960000
v 1.809574 0.346639 -2.960000
v 1.838864 0.417350 -2.960000
v 1.809574 0.488061 -2.960000
v 1.738864 0.517350 -0.980000
v 1.668153 0.488061 -0.980000
v 1.638864 0.417350 -0.980000
v 1.668153 0.346639 -0.980000
v 1.738864 0.317350 -0.980000
v 1.809574 0.346639 -0.980000
v 1.838864 0.417350 -0.980000
v 1.809574 0.488061 -0.980000
v 1.816646 0.495132 -1.055117
v 1.816646 0.495132 -0.984882
v 1.738864 0.527350 -0.984882
v 1.738864 0.527350 -1.055117
v 1.848864 0.417350 -1.055117
v 1.848864 0.417350 -0.984882
v 1.816646 0.339568 -1.055117
v 1.816646 0.339568 -0.984882
v 1.661082 0.495132 -0.984882
v 1.661082 0.495132 -1.055117
v 1.738864 0.307350 -1.055117
v 1.738864 0.307350 -0.984882
v 1.661082 0.339568 -1.055117
v 1.661082 0.339568 -0.984882
v 1.628864 0.417350 -1.055117
v 1.628864 0.417350 -0.984882
v 2.016646 0.495132 -1.055117
v 2.016646 0.495132 -0.984882
v 2.048864 0.417350 -1.055117
v 2.048864 0.417350 -0.984882
vn 0.5670 0.5670 -0.5974
vn 1.0000 -0.0000 -0.0000
vn 0.7071 0.7071 -0.0000
vn -0.0000 0.8780 0.4787
vn -0.3102 0.3102 0.8986
vn -0.0000 0.4388 0.8986
vn -0.8019 -0.0000 -0.5974
vn -0.7071 0.7071 -0.0000
vn -1.0000 -0.0000 -0.0000
vn -0.5670 -0.5670 -0.5974
vn -0.7071 -0.7071 -0.0000
vn -0.0000 -0.8019 -0.5974
vn -0.0000 -1.0000 -0.0000
vn 0.5670 -0.5670 -0.5974
vn 0.7071 -0.7071 -0.0000
vn 0.8019 -0.0000 -0.5974
vn -0.0000 0.8019 -0.5974
vn -0.0000 1.0000 -0.0000
vn -0.5670 0.5670 -0.5974
vn -0.2584 0.7233 0.6404
vn -0.4388 -0.0000 0.8986
vn -0.6208 -0.6208 0.4787
vn -0.4736 -0.4107 0.7791
vn 0.3102 0.3102 0.8986
vn 0.6208 0.6208 0.4787
vn -0.0000 -0.8780 0.4787
vn -0.3102 -0.3102 0.8986
vn 0.3102 -0.3102 0.8986
vn -0.0000 -0.4387 0.8986
vn 0.6208 -0.6208 0.4787
vn 0.4388 -0.0000 0.8986
vn 0.8780 -0.0000 0.4787
vn 0.6208 0.6208 -0.4787
vn 0.8780 -0.0000 -0.4787
vn 0.6208 -0.6208 -0.4787
vn -0.0000 -0.8780 -0.4787
vn -0.6208 -0.6208 -0.4787
vn -0.0000 0.8780 -0.4787
vn -0.4736 -0.4107 -0.7791
vn -0.2584 0.7233 -0.6404
vn -0.0000 0.6247 -0.7809
vn -0.0000 0.6247 0.7809
vn -0.0000 -0.8000 -0.6000
vn -0.0000 -0.8000 0.6000
vn 0.2584 0.7233 0.6404
vn -0.5670 -0.5671 -0.5974
vn 0.4736 -0.4107 0.7791
vn -0.6208 0.6208 0.4787
vn -0.8780 -0.0000 0.4787
vn -0.6208 0.6208 -0.4787
vn -0.8780 -0.0000 -0.4787
vn 0.4736 -0.4107 -0.7791
vn 0.2584 0.7233 -0.6404
vt 0.000000 1.000000
vt 1.000000 1.000000
vt 0.875000 1.000000
vt 0.750000 1.000000
vt 0.625000 1.000000
vt 0.500000 1.000000
vt 0.375000 1.000000
vt 0.250000 1.000000
vt 0.125000 1.000000
vt 1.000000 0.836667
vt 0.000000 0.836667
vt 0.875000 0.836667
vt 0.750000 0.836667
vt 0.625000 0.836667
vt 0.500000 0.836667
vt 0.375000 0.836667
vt 0.250000 0.836667
vt 0.125000 0.836667
vt 0.000000 1.000000
vt 1.000000 1.000000
vt 0.875000 1.000000
vt 0.750000 1.000000
vt 0.625000 1.000000
vt 0.500000 1.000000
vt 0.375000 1.000000
vt 0.250000 1.000000
vt 0.125000 1.000000
vt 0.125000 1.000000
vt 0.125000 1.000000
vt 1.000000 1.000000
vt 0.000000 1.000000
vt 1.000000 1.000000
vt 0.000000 1.000000
vt 0.250000 1.000000
vt 0.250000 1.000000
vt 0.375000 1.000000
vt 0.375000 1.000000
vt 0.875000 1.000000
vt 0.875000 1.000000
vt 0.500000 1.000000
vt 0.500000 1.000000
vt 0.625000 1.000000
vt 0.625000 1.000000
vt 0.750000 1.000000
vt 0.750000 1.000000
vt 0.125000 1.000000
vt 0.125000 1.000000
vt 0.250000 1.000000
vt 0.250000 1.000000
vt 1.000000 1.000000
vt 0.000000 1.000000
vt 0.875000 1.000000
vt 0.750000 1.000000
vt 0.625000 1.000000
vt 0.500000 1.000000
vt 0.375000 1.000000
vt 0.250000 1.000000
vt 0.125000 1.000000
vt 1.000000 0.836667
vt 0.000000 0.836667
vt 0.875000 0.836667
vt 0.750000 0.836667
vt 0.625000 0.836667
vt 0.500000 0.836667
vt 0.375000 0.836667
vt 0.250000 0.836667
vt 0.125000 0.836667
vt 0.000000 1.000000
vt 1.000000 1.000000
vt 0.875000 1.000000
vt 0.750000 1.000000
vt 0.625000 1.000000
vt 0.500000 1.000000
vt 0.375000 1.000000
vt 0.250000 1.000000
vt 0.125000 1.000000
vt 0.125000 1.000000
vt 0.125000 1.000000
vt 1.000000 1.000000
vt 0.000000 1.000000
vt 1.000000 1.000000
vt 0.000000 1.000000
vt 0.250000 1.000000
vt 0.250000 1.000000
vt 0.375000 1.000000
vt 0.375000 1.000000
vt 0.875000 1.000000
vt 0.875000 1.000000
vt 0.500000 1.000000
vt 0.500000 1.000000
vt 0.625000 1.000000
vt 0.625000 1.000000
vt 0.750000 1.000000
vt 0.750000 1.000000
vt 0.125000 1.000000
vt 0.125000 1.000000
vt 0.250000 1.000000
vt 0.250000 1.000000
s 1
f 2/3/1 11/13/2 10/12/3
f 27/31/4 24/27/5 17/19/6
f 7/8/7 16/18/8 15/17/9
f 6/7/10 15/17/9 14/16/11
f 5/6/12 14/16/11 13/15/13
f 4/5/14 13/15/13 12/14/15
f 3/4/16 12/14/15 11/13/2
f 1/2/17 10/12/3 9/10/18
f 8/9/19 9/11/18 16/18/8
f 26/29/20 23/26/21 24/27/5
f 32/37/22 23/26/21 30/35/23
f 27/30/4 18/21/24 33/38/25
f 36/41/26 22/25/27 32/37/22
f 36/41/26 20/23/28 21/24/29
f 38/43/30 19/22/31 20/23/28
f 33/38/25 19/22/31 40/45/32
f 3/4/16 34/39/33 39/44/34
f 34/39/33 40/45/32 39/44/34
f 3/4/16 37/42/35 4/5/14
f 39/44/34 38/43/30 37/42/35
f 5/6/12 37/42/35 35/40/36
f 37/42/35 36/41/26 35/40/36
f 6/7/10 35/40/36 31/36/37
f 35/40/36 32/37/22 31/36/37
f 2/3/1 28/32/38 34/39/33
f 28/32/38 33/38/25 34/39/33
f 6/7/10 29/34/39 7/8/7
f 31/36/37 30/35/23 29/34/39
f 7/8/7 25/28/40 8/9/19
f 8/9/19 28/33/38 1/1/17
f 25/28/40 27/31/4 28/33/38
f 29/34/39 41/46/41 25/28/40
f 25/28/40 42/47/42 26/29/20
f 30/35/23 43/48/43 29/34/39
f 30/35/23 42/47/42 44/49/44
f 55/62/9 46/52/19 54/61/8
f 71/80/4 68/76/24 70/78/45
f 60/67/3 51/57/16 59/66/2
f 59/66/2 50/56/14 58/65/15
f 58/65/15 49/55/12 57/64/13
f 57/64/13 48/54/46 56/63/11
f 56/63/11 47/53/7 55/62/9
f 54/61/8 45/50/17 53/59/18
f 53/60/18 52/58/1 60/67/3
f 70/78/45 67/75/31 74/84/47
f 67/75/31 76/86/30 74/84/47
f 62/70/5 71/79/4 77/87/48
f 66/74/28 80/90/26 76/86/30
f 80/90/26 64/72/27 82/92/22
f 82/92/22 63/71/21 84/94/49
f 63/71/21 77/87/48 84/94/49
f 47/53/7 78/88/50 46/52/19
f 84/94/49 78/88/50 83/93/51
f 81/91/37 47/53/7 48/54/46
f 82/92/22 83/93/51 81/91/37
f 49/55/12 81/91/37 48/54/46
f 80/90/26 81/91/37 79/89/36
f 75/85/35 49/55/12 50/56/14
f 76/86/30 79/89/36 75/85/35
f 46/52/19 72/81/38 45/50/17
f 77/87/48 72/81/38 78/88/50
f 73/83/52 50/56/14 51/57/16
f 74/84/47 75/85/35 73/83/52
f 69/77/53 51/57/16 52/58/1
f 72/82/38 52/58/1 45/51/17
f 71/80/4 69/77/53 72/82/38
f 85/95/41 73/83/52 69/77/53
f 86/96/42 69/77/53 70/78/45
f 87/97/43 74/84/47 73/83/52
f 74/84/47 86/96/42 70/78/45
f 2/3/1 3/4/16 11/13/2
f 27/31/4 26/29/20 24/27/5
f 7/8/7 8/9/19 16/18/8
f 6/7/10 7/8/7 15/17/9
f 5/6/12 6/7/10 14/16/11
f 4/5/14 5/6/12 13/15/13
f 3/4/16 4/5/14 12/14/15
f 1/2/17 2/3/1 10/12/3
f 8/9/19 1/1/17 9/11/18
f 26/29/20 30/35/23 23/26/21
f 32/37/22 22/25/27 23/26/21
f 27/30/4 17/20/6 18/21/24
f 36/41/26 21/24/29 22/25/27
f 36/41/26 38/43/30 20/23/28
f 38/43/30 40/45/32 19/22/31
f 33/38/25 18/21/24 19/22/31
f 3/4/16 2/3/1 34/39/33
f 34/39/33 33/38/25 40/45/32
f 3/4/16 39/44/34 37/42/35
f 39/44/34 40/45/32 38/43/30
f 5/6/12 4/5/14 37/42/35
f 37/42/35 38/43/30 36/41/26
f 6/7/10 5/6/12 35/40/36
f 35/40/36 36/41/26 32/37/22
f 2/3/1 1/2/17 28/32/38
f 28/32/38 27/30/4 33/38/25
f 6/7/10 31/36/37 29/34/39
f 31/36/37 32/37/22 30/35/23
f 7/8/7 29/34/39 25/28/40
f 8/9/19 25/28/40 28/33/38
f 25/28/40 26/29/20 27/31/4
f 29/34/39 43/48/43 41/46/41
f 25/28/40 41/46/41 42/47/42
f 30/35/23 44/49/44 43/48/43
f 30/35/23 26/29/20 42/47/42
f 55/62/9 47/53/7 46/52/19
f 71/80/4 61/68/6 68/76/24
f 60/67/3 52/58/1 51/57/16
f 59/66/2 51/57/16 50/56/14
f 58/65/15 50/56/14 49/55/12
f 57/64/13 49/55/12 48/54/46
f 56/63/11 48/54/46 47/53/7
f 54/61/8 46/52/19 45/50/17
f 53/60/18 45/51/17 52/58/1
f 70/78/45 68/76/24 67/75/31
f 67/75/31 66/74/28 76/86/30
f 62/70/5 61/69/6 71/79/4
f 66/74/28 65/73/29 80/90/26
f 80/90/26 65/73/29 64/72/27
f 82/92/22 64/72/27 63/71/21
f 63/71/21 62/70/5 77/87/48
f 47/53/7 83/93/51 78/88/50
f 84/94/49 77/87/48 78/88/50
f 81/91/37 83/93/51 47/53/7
f 82/92/22 84/94/49 83/93/51
f 49/55/12 79/89/36 81/91/37
f 80/90/26 82/92/22 81/91/37
f 75/85/35 79/89/36 49/55/12
f 76/86/30 80/90/26 79/89/36
f 46/52/19 78/88/50 72/81/38
f 77/87/48 71/79/4 72/81/38
f 73/83/52 75/85/35 50/56/14
f 74/84/47 76/86/30 75/85/35
f 69/77/53 73/83/52 51/57/16
f 72/82/38 69/77/53 52/58/1
f 71/80/4 70/78/45 69/77/53
f 85/95/41 87/97/43 73/83/52
f 86/96/42 85/95/41 69/77/53
f 87/97/43 88/98/44 74/84/47
f 74/84/47 88/98/44 86/96/42
