# Blender 3.1.2
# www.blender.org
mtllib wire.mtl
o Circle
v -1.839186 0.955724 -2.999941
v -1.872587 0.910117 -2.999941
v -1.816390 0.903994 -2.999941
v -1.847520 0.874003 -2.999941
v -1.880921 0.828396 -2.999941
v -1.824723 0.822273 -2.999941
v -1.855905 0.791813 -2.999941
v -1.889306 0.746206 -2.999941
v -1.833108 0.740083 -2.999941
v -1.866133 0.713623 -2.999941
v -1.899534 0.668016 -2.999941
v -1.843337 0.661893 -2.999941
v -1.868292 0.949537 -2.666435
v -1.845496 0.897806 -2.666435
v -1.812095 0.943414 -2.666435
v -1.877359 0.861089 -2.666435
v -1.854563 0.809359 -2.666435
v -1.821162 0.854967 -2.666435
v -1.885744 0.778899 -2.666435
v -1.862947 0.727170 -2.666435
v -1.829546 0.772777 -2.666435
v -1.895972 0.700709 -2.666435
v -1.873176 0.648979 -2.666435
v -1.839775 0.694587 -2.666435
v -1.868842 0.944492 -1.999423
v -1.846046 0.892762 -1.999423
v -1.812095 0.943414 -1.999423
v -1.877176 0.862771 -1.999423
v -1.854380 0.811041 -1.999423
v -1.820429 0.861693 -1.999423
v -1.886660 0.770491 -1.999423
v -1.863864 0.718761 -1.999423
v -1.830462 0.764369 -1.999423
v -1.897438 0.687256 -1.999423
v -1.874642 0.635526 -1.999423
v -1.841240 0.681134 -1.999423
v -1.783769 0.954684 -2.351896
v -1.802756 0.953983 -2.318624
v -1.764740 0.955777 -2.318624
v -1.920690 0.985880 -2.351896
v -1.922635 0.971554 -2.318624
v -1.918745 1.000206 -2.318624
v -1.829593 0.614529 -2.351896
v -1.842431 0.626642 -2.318624
v -1.816756 0.602415 -2.318624
v -1.950794 0.638459 -2.340805
v -1.952189 0.627886 -2.307533
v -1.953584 0.617312 -2.340805
v -1.868292 0.949537 -1.332411
v -1.845496 0.897807 -1.332411
v -1.812095 0.943414 -1.332411
v -1.876626 0.867816 -1.332411
v -1.853830 0.816086 -1.332411
v -1.820429 0.861693 -1.332411
v -1.885011 0.785626 -1.332411
v -1.862215 0.733896 -1.332411
v -1.828813 0.779503 -1.332411
v -1.895239 0.707436 -1.332411
v -1.872443 0.655706 -1.332411
v -1.839042 0.701313 -1.332411
v -1.839186 0.955724 -0.999776
v -1.872587 0.910117 -0.999776
v -1.816390 0.903994 -0.999776
v -1.847520 0.874003 -0.999776
v -1.880921 0.828396 -0.999776
v -1.824723 0.822273 -0.999776
v -1.855905 0.791813 -0.999776
v -1.889306 0.746206 -0.999776
v -1.833108 0.740083 -0.999776
v -1.866133 0.713623 -0.999776
v -1.899534 0.668016 -0.999776
v -1.843337 0.661893 -0.999776
v -1.820209 0.631470 -1.415918
v -1.836622 0.633258 -1.386697
v -1.803797 0.629682 -1.386697
v -1.796764 0.991015 -1.415918
v -1.805609 0.980909 -1.386697
v -1.787920 1.001122 -1.386697
v -1.933115 0.992361 -1.406177
v -1.931793 1.005727 -1.376957
v -1.930471 1.019091 -1.406177
v -1.986021 0.632957 -1.415918
v -1.984774 0.646128 -1.386697
v -1.987267 0.619787 -1.386697
v 1.839186 0.955724 -2.999941
v 1.872587 0.910117 -2.999941
v 1.816390 0.903994 -2.999941
v 1.847520 0.874003 -2.999941
v 1.880921 0.828396 -2.999941
v 1.824723 0.822273 -2.999941
v 1.855905 0.791813 -2.999941
v 1.889306 0.746206 -2.999941
v 1.833108 0.740083 -2.999941
v 1.866133 0.713623 -2.999941
v 1.899534 0.668016 -2.999941
v 1.843337 0.661893 -2.999941
v 1.868292 0.949537 -2.666435
v 1.845496 0.897806 -2.666435
v 1.812095 0.943414 -2.666435
v 1.877359 0.861089 -2.666435
v 1.854563 0.809359 -2.666435
v 1.821162 0.854967 -2.666435
v 1.885744 0.778899 -2.666435
v 1.862947 0.727170 -2.666435
v 1.829546 0.772777 -2.666435
v 1.895972 0.700709 -2.666435
v 1.873176 0.648979 -2.666435
v 1.839775 0.694587 -2.666435
v 1.868842 0.944492 -1.999423
v 1.846046 0.892762 -1.999423
v 1.812095 0.943414 -1.999423
v 1.877176 0.862771 -1.999423
v 1.854380 0.811041 -1.999423
v 1.820429 0.861693 -1.999423
v 1.886660 0.770491 -1.999423
v 1.863864 0.718761 -1.999423
v 1.830462 0.764369 -1.999423
v 1.897438 0.687256 -1.999423
v 1.874642 0.635526 -1.999423
v 1.841240 0.681134 -1.999423
v 1.783769 0.954684 -2.351896
v 1.802756 0.953983 -2.318624
v 1.764740 0.955777 -2.318624
v 1.920690 0.985880 -2.351896
v 1.922635 0.971554 -2.318624
v 1.918745 1.000206 -2.318624
v 1.829593 0.614529 -2.351896
v 1.842431 0.626642 -2.318624
v 1.816756 0.602415 -2.318624
v 1.950794 0.638459 -2.340805
v 1.952189 0.627886 -2.307533
v 1.953584 0.617312 -2.340805
v 1.868292 0.949537 -1.332411
v 1.845496 0.897807 -1.332411
v 1.812095 0.943414 -1.332411
v 1.876626 0.867816 -1.332411
v 1.853830 0.816086 -1.332411
v 1.820429 0.861693 -1.332411
v 1.885011 0.785626 -1.332411
v 1.862215 0.733896 -1.332411
v 1.828813 0.779503 -1.332411
v 1.895239 0.707436 -1.332411
v 1.872443 0.655706 -1.332411
v 1.839042 0.701313 -1.332411
v 1.839186 0.955724 -0.999776
v 1.872587 0.910117 -0.999776
v 1.816390 0.903994 -0.999776
v 1.847520 0.874003 -0.999776
v 1.880921 0.828396 -0.999776
v 1.824723 0.822273 -0.999776
v 1.855905 0.791813 -0.999776
v 1.889306 0.746206 -0.999776
v 1.833108 0.740083 -0.999776
v 1.866133 0.713623 -0.999776
v 1.899534 0.668016 -0.999776
v 1.843337 0.661893 -0.999776
v 1.820209 0.631470 -1.415917
v 1.836622 0.633258 -1.386697
v 1.803797 0.629682 -1.386697
v 1.796764 0.991015 -1.415917
v 1.805609 0.980909 -1.386697
v 1.787920 1.001122 -1.386697
v 1.933115 0.992361 -1.406177
v 1.931793 1.005727 -1.376957
v 1.930471 1.019091 -1.406177
v 1.986021 0.632957 -1.415917
v 1.984774 0.646128 -1.386697
v 1.987267 0.619787 -1.386697
vn 0.8324 -0.5541 0.0057
vn -0.9145 -0.4025 -0.0415
vn -0.8864 -0.4629 0.0048
vn -0.9185 -0.3954 0.0025
vn 0.1082 0.9935 -0.0365
vn 0.1083 0.9941 -0.0050
vn 0.8139 -0.5809 0.0024
vn -0.9121 -0.4072 -0.0474
vn -0.9199 -0.3920 0.0024
vn 0.0882 0.9961 -0.0068
vn 0.9084 0.4118 0.0719
vn 0.8027 -0.5953 -0.0352
vn 0.1076 0.9929 -0.0516
vn -0.8883 -0.4592 -0.0000
vn 0.1076 0.9929 0.0517
vn -0.9123 -0.4079 0.0369
vn 0.0877 0.9961 -0.0000
vn 0.1083 0.9936 -0.0327
vn 0.8118 -0.5839 0.0025
vn -0.9129 -0.4057 -0.0454
vn -0.9123 -0.4079 -0.0369
vn 0.8063 -0.5900 -0.0416
vn -0.1079 -0.9907 0.0833
vn 0.9118 0.4022 0.0822
vn 0.8030 -0.5941 -0.0474
vn 0.8041 -0.5928 -0.0454
vn 0.1082 0.9934 0.0384
vn 0.7986 -0.6002 0.0447
vn 0.1082 0.9931 -0.0441
vn -0.9091 -0.4141 0.0447
vn 0.1082 0.9932 0.0423
vn 0.7997 -0.5989 0.0427
vn -0.9099 -0.4126 0.0427
vn -0.7984 0.5978 -0.0721
vn -0.8038 0.5892 0.0822
vn 0.8027 -0.5953 0.0353
vn 0.9084 0.4118 -0.0721
vn -0.1077 -0.9888 -0.1037
vn 0.6006 -0.6956 0.3943
vn -0.1836 -0.8004 -0.5706
vn 0.2213 -0.3185 -0.9217
vn 0.8040 0.4349 0.4056
vn -0.2620 0.5613 0.7851
vn 0.1958 0.3732 -0.9069
vn 0.1966 0.8275 0.5259
vn -0.4262 -0.4190 0.8017
vn 0.0010 0.8538 -0.5207
vn -0.0669 0.4697 0.8803
vn -0.0773 0.0329 0.9965
vn 0.2945 -0.4847 -0.8236
vn -0.0726 -0.8360 -0.5439
vn -0.0138 0.8124 -0.5829
vn -0.1371 -0.0014 0.9906
vn 0.4060 0.4089 -0.8173
vn 0.0828 -0.0159 -0.9964
vn -0.7011 -0.5796 -0.4154
vn -0.3744 -0.1758 0.9104
vn 0.1770 0.8278 0.5324
vn 0.0829 0.0168 -0.9964
vn -0.1210 -0.8257 0.5510
vn -0.7045 0.5742 -0.4172
vn -0.0083 -0.8499 0.5269
vn -0.1077 -0.9888 0.1035
vn -0.7985 0.5977 0.0719
vn 0.8344 -0.5511 -0.0000
vn 0.9145 -0.4025 -0.0415
vn -0.8324 -0.5541 0.0057
vn 0.8864 -0.4629 0.0048
vn 0.9185 -0.3954 0.0025
vn -0.1082 0.9935 -0.0365
vn 0.9129 -0.4057 -0.0454
vn 0.9121 -0.4072 -0.0474
vn -0.8139 -0.5809 0.0024
vn 0.9199 -0.3920 0.0024
vn -0.0882 0.9961 -0.0068
vn -0.9084 0.4118 0.0719
vn -0.1076 0.9929 -0.0516
vn -0.8027 -0.5953 -0.0352
vn -0.1076 0.9929 0.0517
vn 0.8883 -0.4592 -0.0000
vn 0.9123 -0.4079 0.0369
vn 0.9123 -0.4079 -0.0369
vn -0.1082 0.9936 -0.0327
vn -0.1083 0.9941 -0.0050
vn -0.8118 -0.5839 0.0025
vn -0.8344 -0.5511 -0.0000
vn -0.8063 -0.5900 -0.0416
vn -0.1082 0.9931 -0.0441
vn 0.1079 -0.9907 0.0833
vn -0.9118 0.4022 0.0822
vn -0.8030 -0.5941 -0.0474
vn -0.8041 -0.5928 -0.0454
vn -0.1082 0.9934 0.0384
vn 0.9091 -0.4141 0.0447
vn -0.1082 0.9932 0.0423
vn 0.9099 -0.4126 0.0427
vn 0.7984 0.5978 -0.0721
vn -0.7997 -0.5989 0.0427
vn 0.8038 0.5892 0.0822
vn -0.8027 -0.5953 0.0353
vn -0.9084 0.4118 -0.0721
vn 0.1077 -0.9888 -0.1037
vn -0.7986 -0.6002 0.0447
vn -0.6006 -0.6956 0.3943
vn -0.2213 -0.3185 -0.9217
vn 0.1836 -0.8004 -0.5706
vn -0.8040 0.4349 0.4056
vn -0.1958 0.3732 -0.9069
vn 0.2620 0.5613 0.7851
vn 0.4262 -0.4190 0.8017
vn -0.1966 0.8275 0.5259
vn 0.1210 -0.8257 0.5510
vn 0.0669 0.4697 0.8803
vn -0.0010 0.8538 -0.5207
vn 0.0773 0.0329 0.9965
vn -0.2945 -0.4847 -0.8236
vn 0.0726 -0.8360 -0.5439
vn 0.0138 0.8124 -0.5829
vn 0.1371 -0.0014 0.9906
vn -0.4060 0.4089 -0.8173
vn 0.7011 -0.5796 -0.4154
vn -0.0828 -0.0159 -0.9964
vn 0.3744 -0.1758 0.9104
vn -0.1770 0.8278 0.5324
vn -0.0829 0.0168 -0.9964
vn 0.0083 -0.8499 0.5269
vn 0.7045 0.5742 -0.4172
vn 0.1077 -0.9888 0.1035
vn 0.7985 0.5977 0.0719
vn -0.0877 0.9961 -0.0000
vt 0.000000 0.000000
vt 0.000000 0.000000
vt 0.000000 0.000000
vt 0.000000 0.000000
vt 0.000000 0.000000
vt 0.000000 0.000000
vt 0.000000 0.000000
vt 0.000000 0.000000
vt 0.000000 0.000000
vt 0.000000 0.000000
vt 0.000000 0.000000
vt 0.000000 0.000000
vt 0.000000 0.000000
vt 0.000000 0.000000
vt 0.000000 0.000000
vt 0.000000 0.000000
vt 0.000000 0.000000
vt 0.000000 0.000000
vt 0.000000 0.000000
vt 0.000000 0.000000
vt 0.000000 0.000000
vt 0.000000 0.000000
vt 0.000000 0.000000
vt 0.000000 0.000000
vt 0.000000 0.000000
vt 0.000000 0.000000
vt 0.000000 0.000000
vt 0.000000 0.000000
vt 0.000000 0.000000
vt 0.000000 0.000000
vt 0.000000 0.000000
vt 0.000000 0.000000
vt 0.000000 0.000000
vt 0.000000 0.000000
vt 0.000000 0.000000
vt 0.000000 0.000000
vt 0.000000 0.000000
vt 0.000000 0.000000
vt 0.000000 0.000000
vt 0.000000 0.000000
vt 0.000000 0.000000
vt 0.000000 0.000000
vt 0.000000 0.000000
vt 0.000000 0.000000
vt 0.000000 0.000000
vt 0.000000 0.000000
vt 0.000000 0.000000
vt 0.000000 0.000000
vt 0.000000 0.000000
vt 0.000000 0.000000
vt 0.000000 0.000000
vt 0.000000 0.000000
vt 0.000000 0.000000
vt 0.000000 0.000000
vt 0.000000 0.000000
vt 0.000000 0.000000
vt 0.000000 0.000000
vt 0.000000 0.000000
vt 0.000000 0.000000
vt 0.000000 0.000000
vt 0.000000 0.000000
vt 0.000000 0.000000
vt 0.000000 0.000000
vt 0.000000 0.000000
vt 0.000000 0.000000
vt 0.000000 0.000000
vt 0.000000 0.000000
vt 0.000000 0.000000
vt 0.000000 0.000000
vt 0.000000 0.000000
vt 0.000000 0.000000
vt 0.000000 0.000000
vt 0.000000 0.000000
vt 0.000000 0.000000
vt 0.000000 0.000000
vt 0.000000 0.000000
vt 0.000000 0.000000
vt 0.000000 0.000000
vt 0.000000 0.000000
vt 0.000000 0.000000
vt 0.000000 0.000000
vt 0.000000 0.000000
vt 0.000000 0.000000
vt 0.000000 0.000000
vt 0.000000 0.000000
vt 0.000000 0.000000
vt 0.000000 0.000000
vt 0.000000 0.000000
vt 0.000000 0.000000
vt 0.000000 0.000000
vt 0.000000 0.000000
vt 0.000000 0.000000
vt 0.000000 0.000000
vt 0.000000 0.000000
vt 0.000000 0.000000
vt 0.000000 0.000000
vt 0.000000 0.000000
vt 0.000000 0.000000
vt 0.000000 0.000000
vt 0.000000 0.000000
vt 0.000000 0.000000
vt 0.000000 0.000000
vt 0.000000 0.000000
vt 0.000000 0.000000
vt 0.000000 0.000000
vt 0.000000 0.000000
vt 0.000000 0.000000
vt 0.000000 0.000000
vt 0.000000 0.000000
vt 0.000000 0.000000
vt 0.000000 0.000000
vt 0.000000 0.000000
vt 0.000000 0.000000
vt 0.000000 0.000000
vt 0.000000 0.000000
vt 0.000000 0.000000
vt 0.000000 0.000000
vt 0.000000 0.000000
vt 0.000000 0.000000
vt 0.000000 0.000000
vt 0.000000 0.000000
vt 0.000000 0.000000
vt 0.000000 0.000000
vt 0.000000 0.000000
vt 0.000000 0.000000
vt 0.000000 0.000000
vt 0.000000 0.000000
vt 0.000000 0.000000
vt 0.000000 0.000000
vt 0.000000 0.000000
vt 0.000000 0.000000
vt 0.000000 0.000000
vt 0.000000 0.000000
vt 0.000000 0.000000
vt 0.000000 0.000000
vt 0.000000 0.000000
vt 0.000000 0.000000
vt 0.000000 0.000000
vt 0.000000 0.000000
vt 0.000000 0.000000
vt 0.000000 0.000000
vt 0.000000 0.000000
vt 0.000000 0.000000
vt 0.000000 0.000000
vt 0.000000 0.000000
vt 0.000000 0.000000
vt 0.000000 0.000000
vt 0.000000 0.000000
vt 0.000000 0.000000
vt 0.000000 0.000000
vt 0.000000 0.000000
vt 0.000000 0.000000
vt 0.000000 0.000000
vt 0.000000 0.000000
vt 0.000000 0.000000
vt 0.000000 0.000000
vt 0.000000 0.000000
vt 0.000000 0.000000
vt 0.000000 0.000000
vt 0.000000 0.000000
vt 0.000000 0.000000
vt 0.000000 0.000000
vt 0.000000 0.000000
vt 0.000000 0.000000
vt 0.000000 0.000000
vt 0.000000 0.000000
vt 0.000000 0.000000
vt 0.000000 0.000000
s 1
f 28/28/1 18/18/2 30/30/3
f 33/33/4 20/20/5 32/32/6
f 34/34/7 24/24/8 36/36/9
f 18/18/2 29/29/10 30/30/3
f 2/2/11 13/13/12 14/14/13
f 27/27/14 50/50/15 51/51/16
f 27/27/14 14/14/13 26/26/17
f 23/23/18 34/34/7 35/35/6
f 31/31/19 21/21/20 33/33/4
f 27/27/14 13/13/12 15/15/21
f 36/36/9 23/23/18 35/35/6
f 20/20/5 31/31/19 32/32/6
f 29/29/10 16/16/22 28/28/1
f 4/4/23 18/18/2 16/16/22
f 11/11/24 22/22/25 23/23/18
f 8/8/24 19/19/26 20/20/5
f 59/59/27 34/34/7 58/58/28
f 5/5/24 16/16/22 17/17/29
f 36/36/9 59/59/27 60/60/30
f 30/30/3 53/53/15 54/54/16
f 56/56/31 31/31/19 55/55/32
f 33/33/4 56/56/31 57/57/33
f 50/50/15 63/63/34 51/51/16
f 55/55/32 33/33/4 57/57/33
f 10/10/23 24/24/8 22/22/25
f 7/7/23 21/21/20 19/19/26
f 12/12/35 23/23/18 24/24/8
f 9/9/35 20/20/5 21/21/20
f 49/49/36 62/62/37 50/50/15
f 52/52/36 30/30/3 54/54/16
f 51/51/16 61/61/38 49/49/36
f 58/58/28 36/36/9 60/60/30
f 6/6/35 17/17/29 18/18/2
f 56/56/31 69/69/34 57/57/33
f 45/45/39 48/48/40 43/43/41
f 59/59/27 72/72/34 60/60/30
f 58/58/28 71/71/37 59/59/27
f 55/55/32 68/68/37 56/56/31
f 52/52/36 65/65/37 53/53/15
f 43/43/41 39/39/42 45/45/39
f 39/39/42 44/44/43 45/45/39
f 44/44/43 37/37/44 43/43/41
f 42/42/45 38/38/46 39/39/42
f 84/84/47 73/73/48 82/82/49
f 82/82/49 74/74/50 83/83/51
f 62/62/37 63/63/34 50/50/15
f 46/46/52 47/47/53 44/44/43
f 77/77/54 80/80/55 78/78/56
f 76/76/57 79/79/58 77/77/54
f 47/47/53 48/48/40 45/45/39
f 63/63/34 61/61/38 51/51/16
f 43/43/41 48/48/40 46/46/52
f 43/43/41 46/46/52 44/44/43
f 40/40/59 38/38/46 41/41/60
f 60/60/30 70/70/38 58/58/28
f 42/42/45 37/37/44 40/40/59
f 57/57/33 67/67/38 55/55/32
f 54/54/16 64/64/38 52/52/36
f 44/44/43 47/47/53 45/45/39
f 61/61/38 62/62/37 49/49/36
f 84/84/47 74/74/50 75/75/61
f 71/71/37 72/72/34 59/59/27
f 78/78/56 81/81/62 76/76/57
f 72/72/34 70/70/38 60/60/30
f 68/68/37 69/69/34 56/56/31
f 69/69/34 67/67/38 57/57/33
f 65/65/37 66/66/34 53/53/15
f 55/55/32 67/67/38 68/68/37
f 66/66/34 64/64/38 54/54/16
f 70/70/38 71/71/37 58/58/28
f 64/64/38 65/65/37 52/52/36
f 76/76/57 75/75/61 78/78/56
f 75/75/61 77/77/54 78/78/56
f 77/77/54 73/73/48 76/76/57
f 80/80/55 81/81/62 78/78/56
f 79/79/58 76/76/57 81/81/62
f 49/49/36 27/27/14 51/51/16
f 79/79/58 80/80/55 77/77/54
f 1/1/63 15/15/21 13/13/12
f 53/53/15 66/66/34 54/54/16
f 3/3/64 14/14/13 15/15/21
f 50/50/15 25/25/65 49/49/36
f 14/14/13 25/25/65 26/26/17
f 2/2/11 1/1/63 13/13/12
f 3/3/64 2/2/11 14/14/13
f 3/3/64 15/15/21 1/1/63
f 5/5/24 4/4/23 16/16/22
f 6/6/35 5/5/24 17/17/29
f 4/4/23 6/6/35 18/18/2
f 8/8/24 7/7/23 19/19/26
f 9/9/35 8/8/24 20/20/5
f 7/7/23 9/9/35 21/21/20
f 10/10/23 22/22/25 11/11/24
f 12/12/35 11/11/24 23/23/18
f 10/10/23 12/12/35 24/24/8
f 53/53/15 28/28/1 52/52/36
f 102/102/66 112/112/67 114/114/68
f 117/117/69 104/104/70 105/105/71
f 108/108/72 118/118/73 120/120/74
f 113/113/75 102/102/66 114/114/68
f 86/86/76 98/98/77 97/97/78
f 134/134/79 111/111/80 135/135/81
f 111/111/80 98/98/77 99/99/82
f 118/118/73 107/107/83 119/119/84
f 105/105/71 115/115/85 117/117/69
f 111/111/80 97/97/78 109/109/86
f 120/120/74 107/107/83 108/108/72
f 115/115/85 104/104/70 116/116/84
f 113/113/75 100/100/87 101/101/88
f 88/88/89 100/100/87 102/102/66
f 95/95/90 107/107/83 106/106/91
f 92/92/90 104/104/70 103/103/92
f 143/143/93 118/118/73 119/119/84
f 89/89/90 101/101/88 100/100/87
f 143/143/93 120/120/74 144/144/94
f 137/137/79 114/114/68 138/138/81
f 140/140/95 115/115/85 116/116/84
f 140/140/95 117/117/69 141/141/96
f 134/134/79 135/135/81 147/147/97
f 117/117/69 139/139/98 141/141/96
f 94/94/89 106/106/91 108/108/72
f 91/91/89 103/103/92 105/105/71
f 96/96/99 108/108/72 107/107/83
f 93/93/99 105/105/71 104/104/70
f 133/133/100 134/134/79 146/146/101
f 114/114/68 136/136/100 138/138/81
f 135/135/81 133/133/100 145/145/102
f 120/120/74 142/142/103 144/144/94
f 90/90/99 102/102/66 101/101/88
f 140/140/95 141/141/96 153/153/97
f 129/129/104 127/127/105 132/132/106
f 143/143/93 144/144/94 156/156/97
f 142/142/103 143/143/93 155/155/101
f 139/139/98 140/140/95 152/152/101
f 136/136/100 137/137/79 149/149/101
f 127/127/105 123/123/107 121/121/108
f 128/128/109 123/123/107 129/129/104
f 128/128/109 121/121/108 122/122/110
f 126/126/111 122/122/110 125/125/112
f 157/157/113 168/168/114 166/166/115
f 158/158/116 166/166/115 167/167/117
f 146/146/101 134/134/79 147/147/97
f 130/130/118 128/128/109 131/131/119
f 161/161/120 162/162/121 164/164/122
f 160/160/123 161/161/120 163/163/124
f 131/131/119 129/129/104 132/132/106
f 147/147/97 135/135/81 145/145/102
f 127/127/105 130/130/118 132/132/106
f 127/127/105 128/128/109 130/130/118
f 122/122/110 124/124/125 125/125/112
f 144/144/94 142/142/103 154/154/102
f 121/121/108 126/126/111 124/124/125
f 141/141/96 139/139/98 151/151/102
f 138/138/81 136/136/100 148/148/102
f 128/128/109 129/129/104 131/131/119
f 145/145/102 133/133/100 146/146/101
f 168/168/114 158/158/116 167/167/117
f 155/155/101 143/143/93 156/156/97
f 162/162/121 160/160/123 165/165/126
f 156/156/97 144/144/94 154/154/102
f 152/152/101 140/140/95 153/153/97
f 153/153/97 141/141/96 151/151/102
f 149/149/101 137/137/79 150/150/97
f 139/139/98 152/152/101 151/151/102
f 150/150/97 138/138/81 148/148/102
f 154/154/102 142/142/103 155/155/101
f 148/148/102 136/136/100 149/149/101
f 160/160/123 159/159/127 157/157/113
f 161/161/120 159/159/127 162/162/121
f 161/161/120 157/157/113 158/158/116
f 164/164/122 162/162/121 165/165/126
f 163/163/124 165/165/126 160/160/123
f 111/111/80 133/133/100 135/135/81
f 163/163/124 161/161/120 164/164/122
f 85/85/128 97/97/78 99/99/82
f 137/137/79 138/138/81 150/150/97
f 87/87/129 99/99/82 98/98/77
f 134/134/79 109/109/86 110/110/130
f 109/109/86 98/98/77 110/110/130
f 86/86/76 97/97/78 85/85/128
f 87/87/129 98/98/77 86/86/76
f 87/87/129 85/85/128 99/99/82
f 89/89/90 100/100/87 88/88/89
f 90/90/99 101/101/88 89/89/90
f 88/88/89 102/102/66 90/90/99
f 92/92/90 103/103/92 91/91/89
f 93/93/99 104/104/70 92/92/90
f 91/91/89 105/105/71 93/93/99
f 94/94/89 95/95/90 106/106/91
f 96/96/99 107/107/83 95/95/90
f 94/94/89 108/108/72 96/96/99
f 137/137/79 112/112/67 113/113/75
f 28/28/1 16/16/22 18/18/2
f 33/33/4 21/21/20 20/20/5
f 34/34/7 22/22/25 24/24/8
f 18/18/2 17/17/29 29/29/10
f 27/27/14 26/26/17 50/50/15
f 27/27/14 15/15/21 14/14/13
f 23/23/18 22/22/25 34/34/7
f 31/31/19 19/19/26 21/21/20
f 27/27/14 25/25/65 13/13/12
f 36/36/9 24/24/8 23/23/18
f 20/20/5 19/19/26 31/31/19
f 29/29/10 17/17/29 16/16/22
f 59/59/27 35/35/6 34/34/7
f 36/36/9 35/35/6 59/59/27
f 30/30/3 29/29/10 53/53/15
f 56/56/31 32/32/6 31/31/19
f 33/33/4 32/32/6 56/56/31
f 55/55/32 31/31/19 33/33/4
f 52/52/36 28/28/1 30/30/3
f 58/58/28 34/34/7 36/36/9
f 43/43/41 37/37/44 39/39/42
f 39/39/42 38/38/46 44/44/43
f 44/44/43 38/38/46 37/37/44
f 42/42/45 41/41/60 38/38/46
f 84/84/47 75/75/61 73/73/48
f 82/82/49 73/73/48 74/74/50
f 40/40/59 37/37/44 38/38/46
f 42/42/45 39/39/42 37/37/44
f 84/84/47 83/83/51 74/74/50
f 76/76/57 73/73/48 75/75/61
f 75/75/61 74/74/50 77/77/54
f 77/77/54 74/74/50 73/73/48
f 49/49/36 25/25/65 27/27/14
f 50/50/15 26/26/17 25/25/65
f 14/14/13 13/13/12 25/25/65
f 53/53/15 29/29/10 28/28/1
f 102/102/66 100/100/87 112/112/67
f 117/117/69 116/116/84 104/104/70
f 108/108/72 106/106/91 118/118/73
f 113/113/75 101/101/88 102/102/66
f 134/134/79 110/110/130 111/111/80
f 111/111/80 110/110/130 98/98/77
f 118/118/73 106/106/91 107/107/83
f 105/105/71 103/103/92 115/115/85
f 111/111/80 99/99/82 97/97/78
f 120/120/74 119/119/84 107/107/83
f 115/115/85 103/103/92 104/104/70
f 113/113/75 112/112/67 100/100/87
f 143/143/93 142/142/103 118/118/73
f 143/143/93 119/119/84 120/120/74
f 137/137/79 113/113/75 114/114/68
f 140/140/95 139/139/98 115/115/85
f 140/140/95 116/116/84 117/117/69
f 117/117/69 115/115/85 139/139/98
f 114/114/68 112/112/67 136/136/100
f 120/120/74 118/118/73 142/142/103
f 127/127/105 129/129/104 123/123/107
f 128/128/109 122/122/110 123/123/107
f 128/128/109 127/127/105 121/121/108
f 126/126/111 123/123/107 122/122/110
f 157/157/113 159/159/127 168/168/114
f 158/158/116 157/157/113 166/166/115
f 122/122/110 121/121/108 124/124/125
f 121/121/108 123/123/107 126/126/111
f 168/168/114 159/159/127 158/158/116
f 160/160/123 162/162/121 159/159/127
f 161/161/120 158/158/116 159/159/127
f 161/161/120 160/160/123 157/157/113
f 111/111/80 109/109/86 133/133/100
f 134/134/79 133/133/100 109/109/86
f 109/109/86 97/97/78 98/98/77
f 137/137/79 136/136/100 112/112/67
