# Blender 3.1.2
# www.blender.org
mtllib concrete_road_block.mtl
o Road Block.003
v -0.380802 0.000146 0.145761
v -0.380802 0.008146 0.153761
v -0.388802 0.008146 0.145761
v -0.265209 0.000146 0.145761
v -0.257209 0.008146 0.145761
v -0.265209 0.008146 0.153761
v -0.265209 0.078100 0.153761
v -0.257209 0.062100 0.145761
v -0.249209 0.070100 0.145761
v -0.380802 0.204473 0.153761
v -0.380802 0.217897 0.147880
v -0.388802 0.208968 0.145761
v -0.388802 0.250703 0.100504
v -0.380802 0.256246 0.106294
v -0.388802 0.288390 0.068675
v -0.380802 0.292198 0.075930
v -0.388802 0.361983 0.048675
v -0.380802 0.363473 0.056560
v -0.123595 0.000146 0.145761
v -0.123595 0.008146 0.153761
v -0.131595 0.008146 0.145761
v -0.123595 0.078100 0.153761
v -0.139595 0.070100 0.145761
v -0.131595 0.062100 0.145761
v -0.062809 0.008146 0.145761
v -0.070809 0.008146 0.153761
v -0.070809 0.000146 0.145761
v -0.054809 0.070100 0.145761
v -0.070809 0.078100 0.153761
v -0.062809 0.062100 0.145761
v -0.388802 0.415749 0.042843
v -0.380802 0.416184 0.050843
v -0.380802 0.777746 0.042620
v -0.388802 0.769746 0.042624
v -0.380802 0.769746 0.050624
v -0.380802 0.008146 -0.153757
v -0.380802 0.000146 -0.145757
v -0.388802 0.008146 -0.145757
v -0.265209 0.008146 -0.153757
v -0.257209 0.008146 -0.145757
v -0.265209 0.000146 -0.145757
v -0.265209 0.078100 -0.153757
v -0.249209 0.070100 -0.145757
v -0.257209 0.062100 -0.145757
v -0.380802 0.292198 -0.075926
v -0.388802 0.288390 -0.068671
v -0.380802 0.363473 -0.056556
v -0.388802 0.361983 -0.048671
v -0.380802 0.256246 -0.106290
v -0.388802 0.250703 -0.100500
v -0.380802 0.204473 -0.153757
v -0.388802 0.208968 -0.145757
v -0.380802 0.217897 -0.147876
v -0.123595 0.000146 -0.145757
v -0.131595 0.008146 -0.145757
v -0.123595 0.008146 -0.153757
v -0.123595 0.078100 -0.153757
v -0.131595 0.062100 -0.145757
v -0.139595 0.070100 -0.145757
v -0.070809 0.008146 -0.153757
v -0.062809 0.008146 -0.145757
v -0.070809 0.000146 -0.145757
v -0.054809 0.070100 -0.145757
v -0.062809 0.062100 -0.145757
v -0.070809 0.078100 -0.153757
v -0.380802 0.416184 -0.050839
v -0.388802 0.415749 -0.042840
v -0.380802 0.769746 -0.050620
v -0.388802 0.769746 -0.042620
v -0.380802 0.777746 -0.042616
v 0.070805 0.000146 0.145761
v 0.070805 0.008146 0.153761
v 0.062805 0.008146 0.145761
v 0.070805 0.078100 0.153761
v 0.054805 0.070100 0.145761
v 0.062805 0.062100 0.145761
v 0.123591 0.008146 0.153761
v 0.123591 0.000146 0.145761
v 0.131591 0.008146 0.145761
v 0.131591 0.062100 0.145761
v 0.139591 0.070100 0.145761
v 0.123591 0.078100 0.153761
v 0.257205 0.008146 0.145761
v 0.265204 0.000146 0.145761
v 0.265204 0.008146 0.153761
v 0.249205 0.070100 0.145761
v 0.257205 0.062100 0.145761
v 0.265204 0.078100 0.153761
v 0.388798 0.008146 0.145761
v 0.380798 0.008146 0.153761
v 0.380798 0.000146 0.145761
v 0.380798 0.217897 0.147880
v 0.380798 0.204473 0.153761
v 0.388798 0.208968 0.145761
v 0.388798 0.250703 0.100504
v 0.380798 0.256246 0.106294
v 0.388798 0.288390 0.068675
v 0.380798 0.292198 0.075930
v 0.388798 0.361983 0.048675
v 0.380798 0.363473 0.056560
v 0.388798 0.415749 0.042843
v 0.380798 0.416184 0.050843
v 0.388798 0.769746 0.042624
v 0.380798 0.777746 0.042620
v 0.380798 0.769746 0.050624
v 0.070805 0.008146 -0.153757
v 0.070805 0.000146 -0.145757
v 0.062805 0.008146 -0.145757
v 0.054805 0.070100 -0.145757
v 0.070805 0.078100 -0.153757
v 0.062805 0.062100 -0.145757
v 0.131591 0.008146 -0.145757
v 0.123591 0.000146 -0.145757
v 0.123591 0.008146 -0.153757
v 0.131591 0.062100 -0.145757
v 0.123591 0.078100 -0.153757
v 0.139591 0.070100 -0.145757
v 0.257205 0.008146 -0.145757
v 0.265204 0.008146 -0.153757
v 0.265204 0.000146 -0.145757
v 0.265204 0.078100 -0.153757
v 0.257205 0.062100 -0.145757
v 0.249205 0.070100 -0.145757
v 0.388798 0.008146 -0.145757
v 0.380798 0.000146 -0.145757
v 0.380798 0.008146 -0.153757
v 0.388798 0.288390 -0.068671
v 0.380798 0.292198 -0.075926
v 0.388798 0.361983 -0.048671
v 0.380798 0.363473 -0.056556
v 0.380798 0.256246 -0.106290
v 0.388798 0.250703 -0.100500
v 0.388798 0.208968 -0.145757
v 0.380798 0.204473 -0.153757
v 0.380798 0.217897 -0.147876
v 0.388798 0.415749 -0.042840
v 0.380798 0.416184 -0.050839
v 0.388798 0.769746 -0.042620
v 0.380798 0.769746 -0.050620
v 0.380798 0.777746 -0.042616
vn -0.0000 -1.0000 -0.0000
vn -0.0000 1.0000 -0.0000
vn -0.0000 0.1856 -0.9826
vn -0.0000 0.0543 -0.9985
vn -1.0000 -0.0000 -0.0000
vn 1.0000 -0.0000 -0.0000
vn -0.0000 0.0543 0.9985
vn -0.0000 0.1856 0.9826
vn -0.0000 -0.0000 -1.0000
vn -0.0000 0.2050 -0.9788
vn -0.0000 0.4647 0.8854
vn -0.0000 0.5805 0.8142
vn -0.0000 0.6915 0.7224
vn -0.0000 0.0006 1.0000
vn -0.0000 0.6915 -0.7224
vn -0.0000 0.4647 -0.8854
vn -0.0000 0.0006 -1.0000
vn -0.0000 0.5805 -0.8142
vn -0.5773 -0.5774 0.5774
vn 0.5773 -0.5774 0.5774
vn 0.3015 -0.3015 0.9045
vn -0.6720 0.1078 0.7326
vn -0.6721 0.4655 0.5759
vn -0.6803 0.2941 0.6713
vn -0.3015 -0.3015 0.9045
vn -0.5772 0.5776 0.5772
vn -0.5773 -0.5774 -0.5774
vn 0.5773 -0.5774 -0.5774
vn 0.3015 -0.3015 -0.9045
vn -0.6720 0.1078 -0.7326
vn -0.6803 0.2941 -0.6713
vn -0.6720 0.4655 -0.5759
vn -0.3015 -0.3015 -0.9045
vn -0.5772 0.5776 -0.5772
vn 0.6721 0.4655 0.5759
vn 0.6720 0.1078 0.7326
vn 0.6803 0.2941 0.6713
vn 0.5772 0.5776 0.5772
vn 0.6803 0.2941 -0.6713
vn 0.6720 0.1078 -0.7326
vn 0.6720 0.4655 -0.5759
vn 0.5772 0.5776 -0.5772
vn 0.7078 0.4885 0.5103
vn -0.0000 -0.7071 -0.7071
vn -0.7071 0.0004 -0.7071
vn -0.7076 0.0384 -0.7056
vn -0.7082 0.1310 -0.6937
vn 0.7071 -0.7071 -0.0000
vn -0.0000 -0.7071 0.7071
vn -0.7155 0.3247 -0.6186
vn 0.7076 0.0384 -0.7056
vn 0.7071 0.0004 -0.7071
vn 0.7078 0.4885 -0.5103
vn 0.7155 0.3247 0.6186
vn -0.7071 0.7071 -0.0000
vn -0.7071 -0.0000 -0.7071
vn -0.7071 -0.0000 0.7071
vn 0.7082 0.1310 -0.6937
vn -0.7155 0.3247 0.6186
vn -0.7082 0.1310 0.6937
vn 0.7082 0.1310 0.6937
vn 0.7155 0.3247 -0.6186
vn 0.7071 0.0004 0.7071
vn 0.7076 0.0384 0.7056
vn -0.7076 0.0384 0.7056
vn -0.7078 0.4885 -0.5103
vn 0.7071 -0.0000 -0.7071
vn 0.7071 -0.0000 0.7071
vn -0.7071 0.0004 0.7071
vn -0.7071 -0.7071 -0.0000
vn -0.7078 0.4885 0.5103
vn -0.0000 0.7073 -0.7069
vn -0.0000 0.7073 0.7069
vn 0.7071 0.7071 -0.0000
vn -0.0000 0.2050 0.9788
vn -0.0000 -0.0000 1.0000
vt 0.005141 0.000000
vt 0.005141 0.747398
vt 0.005141 0.000000
vt 0.005141 0.005026
vt 0.000000 0.747398
vt 0.993493 0.503218
vt 0.000000 0.005026
vt 0.456285 0.514011
vt 0.079430 0.747398
vt 0.079430 0.000000
vt 0.456285 0.514011
vt 0.451144 0.514011
vt 0.451144 0.507606
vt 0.079430 0.005026
vt 0.406187 0.507606
vt 0.411328 0.507606
vt 0.079430 0.048975
vt 0.411328 0.514011
vt 0.416469 0.514011
vt 0.255013 0.747398
vt 0.089713 0.043949
vt 0.411328 0.514011
vt 0.005141 0.128370
vt 0.005141 0.133396
vt 0.005141 0.137352
vt 0.000000 0.135129
vt 0.993493 0.630252
vt 0.000000 0.131194
vt 0.956682 0.656652
vt 0.000000 0.165327
vt 0.005141 0.165327
vt 0.930792 0.680492
vt 0.000000 0.190747
vt 0.005141 0.190747
vt 0.914525 0.727045
vt 0.000000 0.237334
vt 0.005141 0.237334
vt 0.170441 0.000000
vt 0.274135 0.993595
vt 0.170441 0.000000
vt 0.170441 0.005026
vt 0.165300 0.005026
vt 0.268994 0.993595
vt 0.174688 0.993595
vt 0.170441 0.048975
vt 0.325458 0.747398
vt 0.160158 0.043949
vt 0.140013 0.993595
vt 0.165300 0.038923
vt 0.330600 0.747398
vt 0.209507 0.005026
vt 0.039816 0.760208
vt 0.313201 0.993595
vt 0.204365 0.000000
vt 0.204365 0.005026
vt 0.308059 0.993595
vt 0.204365 0.000000
vt 0.214648 0.043949
vt 0.174285 0.747398
vt 0.000000 0.760208
vt 0.209507 0.043949
vt 0.204365 0.048975
vt 0.005141 0.760208
vt 0.209507 0.038923
vt 0.909782 0.761055
vt 0.000000 0.270983
vt 0.005141 0.270983
vt 0.005141 0.498905
vt 0.909604 0.984983
vt 0.000000 0.498904
vt 0.000000 0.493135
vt 0.005141 0.498158
vt 0.005141 0.493131
vt 0.994342 0.005026
vt 0.005141 0.514011
vt 0.994342 0.000000
vt 0.756378 0.503218
vt 0.999484 0.005026
vt 0.000000 0.514011
vt 0.451144 0.753803
vt 0.920054 0.005026
vt 0.456285 0.747398
vt 0.451144 0.747398
vt 0.079430 0.514011
vt 0.456285 0.747398
vt 0.920053 0.000000
vt 0.411328 0.753803
vt 0.920053 0.048975
vt 0.909771 0.043949
vt 0.255013 0.514011
vt 0.411328 0.747398
vt 0.914912 0.038923
vt 0.416469 0.747398
vt 0.994342 0.190747
vt 0.819079 0.680492
vt 0.999484 0.190747
vt 0.994342 0.237334
vt 0.835346 0.727045
vt 0.999484 0.237334
vt 0.994342 0.165326
vt 0.793189 0.656653
vt 0.999484 0.165326
vt 0.994342 0.128370
vt 0.999484 0.135129
vt 0.756378 0.630253
vt 0.999484 0.131194
vt 0.994342 0.133396
vt 0.994342 0.137352
vt 0.829043 0.000000
vt 0.274135 0.760208
vt 0.834184 0.005026
vt 0.174688 0.760208
vt 0.268994 0.760208
vt 0.274135 0.753803
vt 0.829043 0.005026
vt 0.829043 0.048975
vt 0.140013 0.760208
vt 0.834184 0.038923
vt 0.330600 0.514011
vt 0.325458 0.514011
vt 0.839325 0.043949
vt 0.795118 0.005026
vt 0.039816 0.993595
vt 0.789977 0.005026
vt 0.313201 0.760208
vt 0.795118 0.000000
vt 0.308059 0.760208
vt 0.174285 0.514011
vt 0.000000 0.993595
vt 0.784836 0.043949
vt 0.000000 0.993595
vt 0.005141 0.993595
vt 0.789977 0.038923
vt 0.000000 1.000000
vt 0.795118 0.048975
vt 0.994342 0.270983
vt 0.840089 0.761055
vt 0.999484 0.270983
vt 0.994342 0.493131
vt 0.005141 0.507606
vt 0.840267 0.984983
vt 0.999484 0.493135
vt 0.000000 0.506860
vt 0.994342 0.498158
vt 0.005141 0.506859
vt 0.295377 0.000000
vt 0.229928 0.993595
vt 0.295377 0.000000
vt 0.295377 0.005026
vt 0.290235 0.005026
vt 0.224787 0.993595
vt 0.084773 0.993595
vt 0.295377 0.048975
vt 0.044957 0.993595
vt 0.244730 0.747398
vt 0.285094 0.043949
vt 0.290235 0.038923
vt 0.050099 0.993595
vt 0.329301 0.005026
vt 0.263852 0.993595
vt 0.329301 0.000000
vt 0.334442 0.005026
vt 0.219645 0.760208
vt 0.268994 0.993595
vt 0.330600 0.747398
vt 0.184971 0.760208
vt 0.334442 0.038923
vt 0.330600 0.747398
vt 0.335741 0.747398
vt 0.339584 0.043949
vt 0.330600 0.753803
vt 0.329301 0.048975
vt 0.415170 0.005026
vt 0.129731 0.993595
vt 0.420312 0.000000
vt 0.089713 0.747398
vt 0.134872 0.993595
vt 0.129731 1.000000
vt 0.420312 0.005026
vt 0.406187 0.747398
vt 0.410029 0.043949
vt 0.095056 0.993595
vt 0.415170 0.038923
vt 0.411328 0.747398
vt 0.411328 0.753803
vt 0.420312 0.048975
vt 0.506249 0.503218
vt 0.499742 0.005026
vt 0.499742 0.005026
vt 0.494600 0.005026
vt 0.506249 0.498158
vt 0.164002 0.747398
vt 0.494600 0.000000
vt 0.494600 0.136803
vt 0.494600 0.137352
vt 0.499742 0.128370
vt 0.494600 0.128370
vt 0.499742 0.135129
vt 0.506249 0.630252
vt 0.499742 0.131194
vt 0.543060 0.656652
vt 0.499742 0.165327
vt 0.494600 0.165327
vt 0.568949 0.680492
vt 0.499742 0.190747
vt 0.494600 0.190747
vt 0.585217 0.727045
vt 0.499742 0.237334
vt 0.494600 0.237334
vt 0.589960 0.761055
vt 0.499742 0.270984
vt 0.494600 0.270984
vt 0.499742 0.498904
vt 0.590138 0.984983
vt 0.499742 0.493135
vt 0.499742 0.498905
vt 0.494600 0.498905
vt 0.494600 0.498158
vt 0.494600 0.493131
vt 0.704107 0.005026
vt 0.229928 0.760208
vt 0.704107 0.000000
vt 0.084773 0.760208
vt 0.709248 0.005026
vt 0.224787 0.760208
vt 0.244730 0.514011
vt 0.044957 0.760208
vt 0.714390 0.043949
vt 0.709248 0.043949
vt 0.704107 0.048975
vt 0.050099 0.760208
vt 0.709248 0.038923
vt 0.665041 0.005026
vt 0.219645 0.993595
vt 0.268994 0.760208
vt 0.268994 0.760208
vt 0.263852 0.760208
vt 0.670183 0.000000
vt 0.263852 0.753803
vt 0.670183 0.005026
vt 0.184971 0.993595
vt 0.330600 0.514011
vt 0.665042 0.038923
vt 0.665041 0.043949
vt 0.670183 0.048975
vt 0.335741 0.514011
vt 0.659900 0.043949
vt 0.584313 0.005026
vt 0.129731 0.760208
vt 0.584313 0.005026
vt 0.579172 0.005026
vt 0.089713 0.514011
vt 0.579172 0.000000
vt 0.134872 0.760208
vt 0.579172 0.048975
vt 0.095056 0.760208
vt 0.584313 0.038923
vt 0.411328 0.514011
vt 0.406187 0.514011
vt 0.589455 0.043949
vt 0.743364 0.503218
vt 0.499742 0.005026
vt 0.164002 0.514011
vt 0.743364 0.498158
vt 0.504883 0.000000
vt 0.749871 0.503219
vt 0.504883 0.005026
vt 0.499742 0.190747
vt 0.680663 0.680492
vt 0.504883 0.190747
vt 0.664396 0.727045
vt 0.499742 0.237334
vt 0.504883 0.237334
vt 0.504883 0.165326
vt 0.706553 0.656653
vt 0.499742 0.165326
vt 0.743364 0.630253
vt 0.499742 0.135129
vt 0.499742 0.131194
vt 0.499742 0.128370
vt 0.504883 0.128370
vt 0.504883 0.133396
vt 0.504883 0.137352
vt 0.659653 0.761055
vt 0.499742 0.270983
vt 0.504883 0.270983
vt 0.659474 0.984983
vt 0.499742 0.493135
vt 0.499742 0.506860
vt 0.499742 0.493131
vt 0.504883 0.493131
vt 0.494600 0.507606
vt 0.504883 0.498158
vt 0.494600 0.506859
s 1
usemtl Solid.005
f 43/90/1 23/46/1 9/20/1
f 33/68/2 140/294/2 70/145/2
f 130/273/3 66/136/4 137/286/4
f 118/249/5 87/182/5 122/256/5
f 44/93/6 5/12/6 40/83/6
f 102/212/7 18/37/8 100/209/8
f 73/152/5 111/231/5 108/223/5
f 55/112/5 24/48/5 58/117/5
f 41/84/1 1/2/1 37/75/1
f 75/155/1 63/128/1 109/226/1
f 80/166/6 112/234/6 115/241/6
f 110/230/9 65/135/9 51/103/10
f 98/206/11 18/37/8 16/34/11
f 11/25/12 96/203/13 14/31/13
f 91/192/1 120/252/1 125/263/1
f 64/132/6 25/52/6 61/123/6
f 96/203/13 16/34/11 14/31/13
f 31/65/5 67/137/5 48/98/5
f 136/284/6 101/210/6 99/207/6
f 123/259/1 81/169/1 117/246/1
f 113/237/1 71/147/1 107/221/1
f 102/212/7 35/73/14 32/67/7
f 49/100/15 128/270/16 131/274/15
f 68/139/17 137/286/4 66/136/4
f 130/273/3 45/94/16 47/97/3
f 131/274/15 53/108/18 49/100/15
f 54/110/1 27/56/1 19/39/1
f 1/1/19 2/3/19 3/7/19
f 4/8/20 5/11/20 6/13/20
f 7/15/21 8/18/21 9/22/21
f 10/23/22 11/24/23 12/28/24
f 19/38/19 20/40/19 21/42/19
f 22/45/25 23/47/25 24/49/25
f 25/51/20 26/54/20 27/57/20
f 28/58/21 29/61/21 30/64/21
f 33/68/26 34/70/26 35/72/26
f 36/74/27 37/76/27 38/78/27
f 39/80/28 40/82/28 41/85/28
f 42/88/29 43/89/29 44/92/29
f 51/103/30 52/106/31 53/107/32
f 54/110/27 55/113/27 56/114/27
f 57/116/33 58/118/33 59/121/33
f 60/122/28 61/124/28 62/126/28
f 63/129/29 64/131/29 65/134/29
f 68/139/34 69/142/34 70/144/34
f 71/146/19 72/148/19 73/150/19
f 74/153/25 75/156/25 76/157/25
f 77/159/20 78/161/20 79/162/20
f 80/165/21 81/168/21 82/171/21
f 83/174/19 84/177/19 85/178/19
f 86/180/25 87/184/25 88/185/25
f 89/188/20 90/189/20 91/193/20
f 92/194/35 93/196/36 94/200/37
f 103/213/38 104/216/38 105/218/38
f 106/220/27 107/222/27 108/224/27
f 109/228/33 110/229/33 111/232/33
f 112/235/28 113/236/28 114/239/28
f 115/243/29 116/244/29 117/247/29
f 118/248/27 119/250/27 120/253/27
f 121/255/33 122/257/33 123/260/33
f 124/261/28 125/264/28 126/266/28
f 133/279/39 134/280/40 135/282/41
f 138/288/42 139/290/42 140/293/42
f 95/202/43 92/195/35 94/198/37
f 60/122/44 54/109/44 56/115/44
f 69/142/45 66/136/46 67/138/46
f 67/138/46 47/97/47 48/99/47
f 115/242/48 81/169/48 80/165/48
f 81/170/49 88/186/49 82/172/49
f 48/99/47 45/94/50 46/96/50
f 137/286/51 138/288/52 136/285/51
f 4/10/49 2/4/49 1/1/49
f 132/276/53 135/283/41 131/274/53
f 95/202/43 98/206/54 96/203/43
f 70/145/55 34/70/55 33/68/55
f 122/257/56 119/251/56 118/248/56
f 85/179/57 87/183/57 83/173/57
f 10/23/22 3/7/57 2/4/57
f 130/273/58 136/285/51 129/272/58
f 16/34/59 17/36/60 15/33/59
f 99/208/61 98/206/54 97/205/54
f 78/161/49 72/149/49 71/146/49
f 128/270/62 129/272/58 127/268/62
f 132/276/53 128/270/62 127/268/62
f 62/127/48 25/53/48 27/56/48
f 103/215/63 102/212/64 101/211/64
f 18/37/60 31/66/65 17/36/60
f 125/264/48 89/187/48 91/191/48
f 50/102/66 45/94/50 49/100/66
f 135/283/18 51/103/10 53/108/18
f 27/57/49 20/41/49 19/38/49
f 113/237/48 79/164/48 78/160/48
f 58/118/56 56/115/56 55/111/56
f 39/80/67 44/93/67 40/83/67
f 8/19/68 6/13/68 5/12/68
f 20/41/57 24/49/57 21/42/57
f 32/67/65 34/71/69 31/66/65
f 72/149/57 76/157/57 73/150/57
f 109/227/70 76/158/70 75/154/70
f 123/259/70 87/184/70 86/180/70
f 59/120/70 24/50/70 23/46/70
f 111/232/56 106/220/56 108/224/56
f 91/193/49 85/179/49 84/175/49
f 11/25/23 13/30/71 12/26/24
f 64/132/48 28/60/48 30/63/48
f 140/294/72 68/140/72 70/145/72
f 121/255/44 117/247/44 116/245/44
f 89/188/68 93/197/36 90/190/68
f 50/102/66 53/108/32 52/104/31
f 126/267/44 120/253/44 119/251/44
f 60/122/67 64/133/67 61/124/67
f 105/219/73 33/68/73 35/73/73
f 30/64/68 26/55/68 25/51/68
f 108/225/70 71/147/70 73/151/70
f 80/167/68 77/159/68 79/162/68
f 134/281/40 124/262/67 126/267/67
f 44/93/48 9/22/48 8/19/48
f 55/113/70 19/39/70 21/43/70
f 16/34/59 13/30/71 14/31/71
f 23/47/49 7/17/49 9/21/49
f 114/240/44 107/222/44 106/220/44
f 138/289/74 104/217/74 103/213/74
f 114/240/67 115/243/67 112/233/67
f 41/85/48 5/12/48 4/8/48
f 42/88/44 59/121/44 43/89/44
f 93/197/75 11/25/12 10/23/75
f 110/230/44 63/130/44 65/135/44
f 101/211/64 100/209/61 99/208/61
f 38/78/56 51/103/30 36/74/56
f 75/156/49 29/62/49 28/58/49
f 118/249/70 84/177/70 83/174/70
f 38/79/70 1/2/70 3/5/70
f 39/81/44 37/76/44 36/74/44
f 93/197/75 29/62/76 74/153/76
f 43/90/1 59/120/1 23/46/1
f 33/68/2 104/217/2 140/294/2
f 130/273/3 47/97/3 66/136/4
f 118/249/5 83/174/5 87/182/5
f 44/93/6 8/19/6 5/12/6
f 102/212/7 32/67/7 18/37/8
f 73/152/5 76/158/5 111/231/5
f 55/112/5 21/44/5 24/48/5
f 41/84/1 4/9/1 1/2/1
f 75/155/1 28/59/1 63/128/1
f 80/166/6 79/163/6 112/234/6
f 134/281/10 126/267/9 121/255/9
f 126/267/9 119/251/9 121/255/9
f 39/81/9 36/74/9 42/88/9
f 36/74/9 51/103/10 42/88/9
f 51/103/10 134/281/10 110/230/9
f 134/281/10 121/255/9 116/245/9
f 116/245/9 114/240/9 106/220/9
f 134/281/10 116/245/9 110/230/9
f 57/116/9 42/88/9 51/103/10
f 60/122/9 56/115/9 57/116/9
f 65/135/9 60/122/9 57/116/9
f 116/245/9 106/220/9 110/230/9
f 65/135/9 57/116/9 51/103/10
f 98/206/11 100/209/8 18/37/8
f 11/25/12 92/195/12 96/203/13
f 91/192/1 84/176/1 120/252/1
f 64/132/6 30/63/6 25/52/6
f 96/203/13 98/206/11 16/34/11
f 38/77/5 3/6/5 13/29/5
f 3/6/5 12/27/5 13/29/5
f 50/101/5 52/105/5 38/77/5
f 46/95/5 50/101/5 15/32/5
f 50/101/5 38/77/5 13/29/5
f 15/32/5 50/101/5 13/29/5
f 15/32/5 17/35/5 46/95/5
f 31/65/5 34/69/5 69/141/5
f 46/95/5 17/35/5 48/98/5
f 17/35/5 31/65/5 48/98/5
f 31/65/5 69/141/5 67/137/5
f 89/187/6 124/261/6 132/275/6
f 124/261/6 133/277/6 132/275/6
f 95/201/6 94/199/6 89/187/6
f 97/204/6 95/201/6 127/269/6
f 95/201/6 89/187/6 132/275/6
f 127/269/6 95/201/6 132/275/6
f 127/269/6 129/271/6 97/204/6
f 136/284/6 138/287/6 101/210/6
f 138/287/6 103/214/6 101/210/6
f 97/204/6 129/271/6 99/207/6
f 129/271/6 136/284/6 99/207/6
f 123/259/1 86/180/1 81/169/1
f 113/237/1 78/160/1 71/147/1
f 102/212/7 105/219/14 35/73/14
f 49/100/15 45/94/16 128/270/16
f 68/139/17 139/291/17 137/286/4
f 130/273/3 128/270/16 45/94/16
f 131/274/15 135/283/18 53/108/18
f 54/110/1 62/127/1 27/56/1
f 95/202/43 96/203/43 92/195/35
f 60/122/44 62/126/44 54/109/44
f 69/142/45 68/139/45 66/136/46
f 67/138/46 66/136/46 47/97/47
f 115/242/48 117/246/48 81/169/48
f 81/170/49 86/181/49 88/186/49
f 48/99/47 47/97/47 45/94/50
f 137/286/51 139/291/52 138/288/52
f 4/10/49 6/14/49 2/4/49
f 132/276/53 133/278/39 135/283/41
f 95/202/43 97/205/54 98/206/54
f 70/145/55 69/143/55 34/70/55
f 122/257/56 121/255/56 119/251/56
f 85/179/57 88/186/57 87/183/57
f 10/23/22 12/28/24 3/7/57
f 130/273/58 137/286/51 136/285/51
f 16/34/59 18/37/60 17/36/60
f 99/208/61 100/209/61 98/206/54
f 78/161/49 77/159/49 72/149/49
f 128/270/62 130/273/58 129/272/58
f 132/276/53 131/274/53 128/270/62
f 62/127/48 61/125/48 25/53/48
f 103/215/63 105/219/63 102/212/64
f 18/37/60 32/67/65 31/66/65
f 125/264/48 124/261/48 89/187/48
f 50/102/66 46/96/50 45/94/50
f 135/283/18 134/281/10 51/103/10
f 27/57/49 26/55/49 20/41/49
f 113/237/48 112/235/48 79/164/48
f 58/118/56 57/116/56 56/115/56
f 39/80/67 42/87/67 44/93/67
f 8/19/68 7/16/68 6/13/68
f 20/41/57 22/45/57 24/49/57
f 32/67/65 35/73/69 34/71/69
f 72/149/57 74/153/57 76/157/57
f 109/227/70 111/231/70 76/158/70
f 123/259/70 122/258/70 87/184/70
f 59/120/70 58/119/70 24/50/70
f 111/232/56 110/230/56 106/220/56
f 91/193/49 90/190/49 85/179/49
f 11/25/23 14/31/71 13/30/71
f 64/132/48 63/129/48 28/60/48
f 140/294/72 139/292/72 68/140/72
f 121/255/44 123/260/44 117/247/44
f 89/188/68 94/200/37 93/197/36
f 50/102/66 49/100/66 53/108/32
f 126/267/44 125/265/44 120/253/44
f 60/122/67 65/135/67 64/133/67
f 105/219/73 104/217/73 33/68/73
f 30/64/68 29/62/68 26/55/68
f 108/225/70 107/221/70 71/147/70
f 80/167/68 82/172/68 77/159/68
f 134/281/40 133/279/39 124/262/67
f 44/93/48 43/91/48 9/22/48
f 55/113/70 54/110/70 19/39/70
f 16/34/59 15/33/59 13/30/71
f 23/47/49 22/45/49 7/17/49
f 114/240/44 113/238/44 107/222/44
f 138/289/74 140/294/74 104/217/74
f 114/240/67 116/245/67 115/243/67
f 41/85/48 40/83/48 5/12/48
f 42/88/44 57/116/44 59/121/44
f 93/197/75 92/195/12 11/25/12
f 110/230/44 109/228/44 63/130/44
f 101/211/64 102/212/64 100/209/61
f 38/78/56 52/106/31 51/103/30
f 75/156/49 74/153/49 29/62/49
f 118/249/70 120/254/70 84/177/70
f 38/79/70 37/75/70 1/2/70
f 39/81/44 41/86/44 37/76/44
f 10/23/75 2/4/76 7/17/76
f 2/4/76 6/14/76 7/17/76
f 85/179/76 90/190/76 88/186/76
f 90/190/76 93/197/75 88/186/76
f 93/197/75 10/23/75 29/62/76
f 10/23/75 7/17/76 22/45/76
f 22/45/76 20/41/76 26/55/76
f 10/23/75 22/45/76 29/62/76
f 82/172/76 88/186/76 93/197/75
f 72/149/76 77/159/76 82/172/76
f 74/153/76 72/149/76 82/172/76
f 22/45/76 26/55/76 29/62/76
f 74/153/76 82/172/76 93/197/75
